<svg width="24" height="24" viewBox="0 0 24 24" fill="none" xmlns="http://www.w3.org/2000/svg">
<g id="book-open">
<g id="Vector">
<path d="M12 19.5001C12 18.5001 4 16.8001 3 17.5001V4.80014C4 3.80014 12 5.50714 12 6.50614V19.5001Z" fill="white"/>
<path d="M12 19.5001C12 18.5001 20 16.8001 21 17.5001V4.80014C20 3.80014 12 5.50714 12 6.50614V19.5001Z" fill="white"/>
<path d="M12 19.5001C12 18.5001 4 16.8001 3 17.5001V4.80014C4 3.80014 12 5.50714 12 6.50614M12 19.5001V6.50614M12 19.5001C12 18.5001 20 16.8001 21 17.5001V4.80014C20 3.80014 12 5.50714 12 6.50614" stroke="#2F2F38" stroke-width="2" stroke-linecap="round" stroke-linejoin="round"/>
</g>
</g>
</svg>
