<svg width="24" height="24" viewBox="0 0 24 24" fill="none" xmlns="http://www.w3.org/2000/svg">
<g id="calendar-month">
<g id="Vector">
<path d="M20 5H4C3.44772 5 3 5.44772 3 6V20C3 20.5523 3.44772 21 4 21H20C20.5523 21 21 20.5523 21 20V6C21 5.44772 20.5523 5 20 5Z" fill="white"/>
<path d="M7 13.01V13H7.01V13.01H7Z" fill="white"/>
<path d="M12 13.01V13H12.01V13.01H12Z" fill="white"/>
<path d="M12 17.01V17H12.01V17.01H12Z" fill="white"/>
<path d="M17 17.01V17H17.01V17.01H17Z" fill="white"/>
<path d="M17 13.01V13H17.01V13.01H17Z" fill="white"/>
<path d="M7 17.01V17H7.01V17.01H7Z" fill="white"/>
<path d="M8 3C8 2.44772 7.55228 2 7 2C6.44772 2 6 2.44772 6 3H8ZM6 6C6 6.55228 6.44772 7 7 7C7.55228 7 8 6.55228 8 6H6ZM13 3C13 2.44772 12.5523 2 12 2C11.4477 2 11 2.44772 11 3H13ZM11 6C11 6.55228 11.4477 7 12 7C12.5523 7 13 6.55228 13 6H11ZM18 3C18 2.44772 17.5523 2 17 2C16.4477 2 16 2.44772 16 3H18ZM16 6C16 6.55228 16.4477 7 17 7C17.5523 7 18 6.55228 18 6H16ZM3 8C2.44772 8 2 8.44772 2 9C2 9.55228 2.44772 10 3 10V8ZM21 10C21.5523 10 22 9.55228 22 9C22 8.44772 21.5523 8 21 8V10ZM7 13V12H6V13H7ZM7 13.01H6V14.01H7V13.01ZM7.01 13.01V14.01H8.01V13.01H7.01ZM7.01 13H8.01V12H7.01V13ZM12 13V12H11V13H12ZM12 13.01H11V14.01H12V13.01ZM12.01 13.01V14.01H13.01V13.01H12.01ZM12.01 13H13.01V12H12.01V13ZM12 17V16H11V17H12ZM12 17.01H11V18.01H12V17.01ZM12.01 17.01V18.01H13.01V17.01H12.01ZM12.01 17H13.01V16H12.01V17ZM17 17V16H16V17H17ZM17 17.01H16V18.01H17V17.01ZM17.01 17.01V18.01H18.01V17.01H17.01ZM17.01 17H18.01V16H17.01V17ZM17 13V12H16V13H17ZM17 13.01H16V14.01H17V13.01ZM17.01 13.01V14.01H18.01V13.01H17.01ZM17.01 13H18.01V12H17.01V13ZM7 17V16H6V17H7ZM7 17.01H6V18.01H7V17.01ZM7.01 17.01V18.01H8.01V17.01H7.01ZM7.01 17H8.01V16H7.01V17ZM4 6H20V4H4V6ZM20 6H22C22 4.89543 21.1046 4 20 4V6ZM20 6V20H22V6H20ZM20 20V22C21.1046 22 22 21.1046 22 20H20ZM20 20H4V22H20V20ZM4 20H2C2 21.1046 2.89543 22 4 22V20ZM4 20V6H2V20H4ZM4 6V4C2.89543 4 2 4.89543 2 6H4ZM6 3V6H8V3H6ZM11 3V6H13V3H11ZM16 3V6H18V3H16ZM3 10H21V8H3V10ZM6 13V13.01H8V13H6ZM7 14.01H7.01V12.01H7V14.01ZM8.01 13.01V13H6.01V13.01H8.01ZM7.01 12H7V14H7.01V12ZM11 13V13.01H13V13H11ZM12 14.01H12.01V12.01H12V14.01ZM13.01 13.01V13H11.01V13.01H13.01ZM12.01 12H12V14H12.01V12ZM11 17V17.01H13V17H11ZM12 18.01H12.01V16.01H12V18.01ZM13.01 17.01V17H11.01V17.01H13.01ZM12.01 16H12V18H12.01V16ZM16 17V17.01H18V17H16ZM17 18.01H17.01V16.01H17V18.01ZM18.01 17.01V17H16.01V17.01H18.01ZM17.01 16H17V18H17.01V16ZM16 13V13.01H18V13H16ZM17 14.01H17.01V12.01H17V14.01ZM18.01 13.01V13H16.01V13.01H18.01ZM17.01 12H17V14H17.01V12ZM6 17V17.01H8V17H6ZM7 18.01H7.01V16.01H7V18.01ZM8.01 17.01V17H6.01V17.01H8.01ZM7.01 16H7V18H7.01V16Z" fill="#2F2F38"/>
</g>
</g>
</svg>
