<svg width="24" height="14" viewBox="0 0 24 14" fill="none" xmlns="http://www.w3.org/2000/svg">
<g id="Group">
<path id="Vector" d="M12 0.4375C5.7375 0.4375 0.637497 5.95 0.637497 12.7375C0.637497 13.1875 1.0125 13.6 1.5 13.6H22.5C22.95 13.6 23.3625 13.225 23.3625 12.7375C23.3625 5.95 18.2625 0.4375 12 0.4375ZM11.625 11.875L12 10.7125L12.375 11.875H11.625ZM14.1375 11.875L13.125 8.725C12.975 8.2375 12.525 7.9 12 7.9C11.475 7.9 11.025 8.2375 10.875 8.725L9.8625 11.875H2.3625C2.775 6.4375 6.9375 2.125 12 2.125C17.0625 2.125 21.225 6.4375 21.6375 11.875H14.1375Z" fill="white"/>
<path id="Vector_2" d="M12 4.3374C11.55 4.3374 11.1375 4.7124 11.1375 5.1999V6.1374C11.1375 6.5874 11.5125 6.9999 12 6.9999C12.45 6.9999 12.8625 6.6249 12.8625 6.1374V5.1999C12.8625 4.7124 12.45 4.3374 12 4.3374Z" fill="white"/>
<path id="Vector_3" d="M17.4 7.1125L16.8 7.7125C16.4625 8.05 16.4625 8.575 16.8 8.9125C16.95 9.0625 17.175 9.1375 17.4 9.1375C17.625 9.1375 17.85 9.0625 18 8.875L18.6 8.275C18.9375 7.9375 18.9375 7.4125 18.6 7.075C18.2625 6.7375 17.7375 6.775 17.4 7.1125Z" fill="white"/>
<path id="Vector_4" d="M6.63749 7.11241C6.33749 6.77491 5.77499 6.7374 5.43749 7.0374C5.09999 7.3374 5.06249 7.8999 5.36249 8.23741L5.92499 8.83741C6.07499 9.02491 6.33749 9.0999 6.56249 9.0999C6.74999 9.0999 6.97499 9.02491 7.12499 8.87491C7.46249 8.57491 7.49999 8.01241 7.19999 7.67491L6.63749 7.11241Z" fill="white"/>
</g>
</svg>
