<svg width="20" height="20" viewBox="0 0 20 20" fill="none" xmlns="http://www.w3.org/2000/svg">
<path d="M14.1667 13.3339V15.6948C14.1668 15.8225 14.1417 15.949 14.0929 16.0671C14.044 16.1851 13.9724 16.2923 13.8821 16.3827C13.7917 16.473 13.6845 16.5446 13.5665 16.5935C13.4484 16.6423 13.3219 16.6674 13.1942 16.6673H3.4725C3.34476 16.6674 3.21825 16.6423 3.10021 16.5935C2.98217 16.5446 2.87492 16.473 2.78459 16.3827C2.69427 16.2923 2.62264 16.1851 2.5738 16.0671C2.52497 15.949 2.49989 15.8225 2.5 15.6948V5.97311C2.49989 5.84536 2.52497 5.71885 2.5738 5.60082C2.62264 5.48278 2.69427 5.37553 2.78459 5.2852C2.87492 5.19487 2.98217 5.12324 3.10021 5.07441C3.21825 5.02558 3.34476 5.0005 3.4725 5.00061H8.98583" fill="#3758F9"/>
<path d="M17.0075 3.82644C17.1636 3.98246 17.2875 4.16771 17.372 4.37161C17.4565 4.57551 17.5 4.79406 17.5 5.01477C17.5 5.23549 17.4565 5.45404 17.372 5.65794C17.2875 5.86184 17.1636 6.04709 17.0075 6.20311L10.4708 12.7398L7.5 13.3339L8.09417 10.3631L14.6308 3.82644C14.7868 3.67032 14.9721 3.54647 15.176 3.46197C15.3799 3.37748 15.5985 3.33398 15.8192 3.33398C16.0399 3.33398 16.2584 3.37748 16.4623 3.46197C16.6662 3.54647 16.8515 3.67032 17.0075 3.82644Z" fill="#3758F9"/>
<path d="M14.1667 13.3339V15.6948C14.1668 15.8225 14.1417 15.949 14.0929 16.0671C14.044 16.1851 13.9724 16.2923 13.8821 16.3827C13.7917 16.473 13.6845 16.5446 13.5665 16.5935C13.4484 16.6423 13.3219 16.6674 13.1942 16.6673H3.4725C3.34476 16.6674 3.21825 16.6423 3.10021 16.5935C2.98217 16.5446 2.87492 16.473 2.78459 16.3827C2.69427 16.2923 2.62264 16.1851 2.5738 16.0671C2.52497 15.949 2.49989 15.8225 2.5 15.6948V5.97311C2.49989 5.84536 2.52497 5.71885 2.5738 5.60082C2.62264 5.48278 2.69427 5.37553 2.78459 5.2852C2.87492 5.19487 2.98217 5.12324 3.10021 5.07441C3.21825 5.02558 3.34476 5.0005 3.4725 5.00061H8.98583M13.5867 4.87061L15.9633 7.24727M17.0075 3.82644C17.1636 3.98246 17.2875 4.16771 17.372 4.37161C17.4565 4.57551 17.5 4.79406 17.5 5.01477C17.5 5.23549 17.4565 5.45404 17.372 5.65794C17.2875 5.86184 17.1636 6.04709 17.0075 6.20311L10.4708 12.7398L7.5 13.3339L8.09417 10.3631L14.6308 3.82644C14.7869 3.67032 14.9721 3.54647 15.176 3.46197C15.3799 3.37748 15.5985 3.33398 15.8192 3.33398C16.0399 3.33398 16.2584 3.37748 16.4623 3.46197C16.6662 3.54647 16.8515 3.67032 17.0075 3.82644Z" stroke="white" stroke-width="2" stroke-linecap="round" stroke-linejoin="round"/>
</svg>
