<svg width="62" height="62" viewBox="0 0 62 62" fill="none" xmlns="http://www.w3.org/2000/svg">
<path d="M10.8326 51.6737H10.8326V51.666V23.7493H23.2493C24.7522 23.7493 26.1935 23.1523 27.2562 22.0896C28.3189 21.0269 28.916 19.5856 28.916 18.0827V5.66602H46.6651C47.8783 5.68921 49.0329 6.19189 49.8764 7.0642C50.721 7.93758 51.1847 9.1102 51.166 10.325L51.166 10.325V10.3327V51.666H51.1659L51.166 51.6737C51.1847 52.8885 50.721 54.0611 49.8764 54.9345C49.0329 55.8068 47.8783 56.3095 46.6652 56.3327H15.3334C14.1203 56.3095 12.9657 55.8068 12.1222 54.9345C11.2776 54.0611 10.8139 52.8885 10.8326 51.6737ZM22.805 44.416H38.9198C39.7376 44.416 40.5218 44.0912 41.1 43.5129C41.6783 42.9347 42.0031 42.1504 42.0031 41.3327C42.0031 40.5149 41.6783 39.7307 41.1 39.1524C40.5218 38.5742 39.7376 38.2493 38.9198 38.2493H22.805C21.9872 38.2493 21.203 38.5742 20.6247 39.1524C20.0465 39.7307 19.7216 40.5149 19.7216 41.3327C19.7216 42.1504 20.0465 42.9347 20.6247 43.5129C21.203 44.0912 21.9872 44.416 22.805 44.416ZM22.805 34.0827H38.9198C39.7376 34.0827 40.5218 33.7578 41.1 33.1796C41.6783 32.6014 42.0031 31.8171 42.0031 30.9993C42.0031 30.1816 41.6783 29.3973 41.1 28.8191C40.5218 28.2409 39.7376 27.916 38.9198 27.916H22.805C21.9872 27.916 21.203 28.2409 20.6247 28.8191C20.0465 29.3973 19.7216 30.1816 19.7216 30.9993C19.7216 31.8171 20.0465 32.6014 20.6247 33.1796C21.203 33.7578 21.9872 34.0827 22.805 34.0827ZM22.7493 6.19117V17.5827H11.3589C11.7132 16.6539 12.2569 15.8061 12.9582 15.0947C12.9586 15.0943 12.959 15.0939 12.9594 15.0935L20.2608 7.79215C20.2611 7.79183 20.2614 7.7915 20.2617 7.79118C20.972 7.08851 21.8199 6.54434 22.7493 6.19117Z" fill="#9CA3AF" stroke="#9CA3AF"/>
</svg>
