<svg width="24" height="24" viewBox="0 0 24 24" fill="none" xmlns="http://www.w3.org/2000/svg">
<g id="file-check">
<g id="Vector">
<path d="M19 4V20C19.0084 20.2562 18.9149 20.5053 18.74 20.6927C18.5652 20.8801 18.3232 20.9906 18.067 21H5.933C5.67684 20.9906 5.43484 20.8801 5.25997 20.6927C5.08511 20.5053 4.99163 20.2562 5 20V7.828C5.00011 7.29761 5.2109 6.78899 5.586 6.414L8.414 3.586C8.78898 3.2109 9.29761 3.00011 9.828 3H18.067C18.3232 3.00939 18.5652 3.11989 18.74 3.30731C18.9149 3.49473 19.0084 3.74381 19 4Z" fill="white"/>
<path d="M10 3V7C10 7.26522 9.89464 7.51957 9.70711 7.70711C9.51957 7.89464 9.26521 8 9 8H5" fill="white"/>
<path d="M9 14L11 16L15 12" fill="white"/>
<path d="M10 3V7C10 7.26522 9.89464 7.51957 9.70711 7.70711C9.51957 7.89464 9.26522 8 9 8H5M9 14L11 16L15 12M19 4V20C19.0084 20.2562 18.9149 20.5053 18.74 20.6927C18.5652 20.8801 18.3232 20.9906 18.067 21H5.933C5.67684 20.9906 5.43484 20.8801 5.25997 20.6927C5.08511 20.5053 4.99163 20.2562 5 20V7.828C5.00011 7.29761 5.2109 6.78899 5.586 6.414L8.414 3.586C8.78898 3.2109 9.29761 3.00011 9.828 3H18.067C18.3232 3.00939 18.5652 3.11989 18.74 3.30731C18.9149 3.49473 19.0084 3.74381 19 4Z" stroke="#2F2F38" stroke-width="2" stroke-linecap="round" stroke-linejoin="round"/>
</g>
</g>
</svg>
