<svg width="98" height="42" viewBox="0 0 98 42" fill="none" xmlns="http://www.w3.org/2000/svg">
<g id="logo kg baru (1) 1_layerstyle">
<g id="Group">
<path id="Vector" d="M11.9345 31.0523C12.0798 30.8633 12.285 30.605 12.391 30.4828C12.4948 30.3584 12.587 30.2592 12.5962 30.2638C12.6031 30.2661 12.6976 30.3722 12.8037 30.499C12.9097 30.6258 13.0988 30.8633 13.2279 31.0293C13.3547 31.1953 13.5415 31.4466 13.6429 31.5895C13.742 31.7301 13.9173 31.9907 14.0279 32.1659C14.1386 32.3388 14.2954 32.597 14.3761 32.7353C14.4567 32.876 14.5559 33.0512 14.5974 33.1273C14.6389 33.2033 14.7495 33.4155 14.8418 33.5999C14.934 33.7843 15.047 34.0172 15.0931 34.1186C15.1392 34.2201 15.2199 34.4022 15.2683 34.5221C15.319 34.642 15.3582 34.7434 15.3582 34.748C15.3582 34.7503 14.1132 34.7526 9.82498 34.7526L9.83881 34.7019C9.84804 34.672 9.92181 34.4944 10.0071 34.3031C10.0901 34.114 10.2469 33.7797 10.3552 33.5653C10.4636 33.3509 10.6457 33.012 10.7564 32.816C10.8694 32.6201 11.1207 32.2212 11.3143 31.9284C11.508 31.6356 11.787 31.2437 11.9345 31.0523Z" fill="#EE2D24" stroke="white" stroke-width="0.0207493"/>
<path id="Vector_2" d="M9.60121 35.3175C9.67037 35.1262 9.74645 34.9233 9.76951 34.861L9.81101 34.7527L15.3673 34.7642L15.4549 34.9832C15.5056 35.1031 15.6047 35.3844 15.6808 35.6057C15.7546 35.8271 15.8468 36.1175 15.8837 36.2513C15.9229 36.385 15.9967 36.6593 16.0474 36.8622C16.0981 37.0651 16.1696 37.3925 16.2088 37.5885C16.248 37.7844 16.2987 38.0749 16.3241 38.234C16.3494 38.3931 16.3863 38.6513 16.4071 38.8104C16.4255 38.9695 16.4578 39.3476 16.4762 39.6519C16.4947 39.9562 16.5108 40.3113 16.5108 40.6778H8.67209V40.4058C8.67209 40.2582 8.68362 39.9654 8.69514 39.7556C8.70898 39.5458 8.73895 39.1839 8.76431 38.9487C8.78736 38.7135 8.82886 38.3885 8.85653 38.2225C8.88189 38.0565 8.93492 37.766 8.97411 37.5769C9.011 37.3856 9.08247 37.0651 9.13319 36.8622C9.18161 36.6593 9.28074 36.3066 9.34991 36.0784C9.41907 35.8501 9.53204 35.5066 9.60121 35.3175Z" fill="#653938" stroke="white" stroke-width="0.0207493"/>
<path id="Vector_3" d="M12.5914 24.8389V18.8792V12.9194H24.5224L24.5063 13.3736C24.497 13.6249 24.474 13.9707 24.4555 14.1414C24.4371 14.312 24.4048 14.561 24.3841 14.6947C24.3633 14.8284 24.3357 14.9944 24.3241 15.0636C24.3103 15.1327 24.278 15.2895 24.2527 15.4094C24.2273 15.5293 24.1812 15.7322 24.1489 15.859C24.1166 15.9858 24.0498 16.2255 23.999 16.3892C23.9506 16.5529 23.8722 16.7927 23.8261 16.9195C23.7823 17.0463 23.697 17.2653 23.6417 17.4036C23.5841 17.542 23.4757 17.7933 23.3996 17.957C23.3235 18.1207 23.1898 18.3927 23.0999 18.5564C23.01 18.7201 22.8901 18.9345 22.8325 19.029C22.7748 19.1236 22.6342 19.3426 22.5212 19.5132C22.4082 19.6838 22.2399 19.9213 22.15 20.0411C22.0601 20.161 21.9656 20.2855 21.9425 20.3178C21.9172 20.3501 21.8088 20.4815 21.7005 20.6083C21.5921 20.7351 21.3869 20.9633 21.2463 21.1155C21.1056 21.2677 20.852 21.519 20.6814 21.6734C20.5108 21.8256 20.2526 22.0492 20.1074 22.1691C19.9621 22.2867 19.75 22.4527 19.6347 22.5357C19.5194 22.621 19.2774 22.787 19.0929 22.9069C18.9085 23.0291 18.6434 23.1928 18.505 23.2712C18.3667 23.3519 18.0439 23.5178 17.7903 23.6423C17.5367 23.7645 17.184 23.9236 17.0064 23.9928C16.8289 24.0619 16.5292 24.1726 16.3378 24.2349C16.1488 24.2994 15.8514 24.3893 15.6808 24.4331C15.5102 24.4769 15.2496 24.5392 15.1044 24.5715C14.9592 24.6037 14.7102 24.6499 14.5511 24.6752C14.392 24.7006 14.1338 24.7375 13.9747 24.7559C13.8156 24.7767 13.5205 24.802 13.3176 24.8158C13.1148 24.8274 12.8681 24.8389 12.5914 24.8389Z" fill="#088A49" stroke="white" stroke-width="0.0207493"/>
<path id="Vector_4" d="M0.672028 34.753V29.7962V24.8394H0.987882C1.1631 24.8394 1.44668 24.8486 1.61729 24.8624C1.78789 24.8739 2.0438 24.8947 2.18213 24.9085C2.32046 24.9224 2.51874 24.9431 2.62018 24.9569C2.72162 24.9685 2.87148 24.9892 2.95448 25.003C3.03748 25.0146 3.16197 25.0353 3.23114 25.0469C3.30031 25.0584 3.45708 25.086 3.57697 25.1045C3.69685 25.1252 3.83749 25.1506 3.88821 25.1621C3.93893 25.1737 4.03115 25.1944 4.09571 25.2082C4.15795 25.2221 4.31473 25.259 4.44153 25.2912C4.56833 25.3235 4.77122 25.3765 4.8911 25.4065C5.01099 25.4388 5.1401 25.4734 5.17929 25.4826C5.21849 25.4941 5.45134 25.5702 5.69803 25.6532C5.94472 25.7339 6.29746 25.863 6.4819 25.9345C6.66635 26.0059 6.87384 26.0912 6.94301 26.1235C7.01217 26.1535 7.14128 26.2134 7.23119 26.2526C7.32111 26.2941 7.58394 26.4232 7.8191 26.5408C8.05426 26.6584 8.28712 26.7783 8.33784 26.8083C8.38856 26.8359 8.47617 26.8866 8.53381 26.9189C8.59144 26.9512 8.72055 27.025 8.82199 27.0872C8.92344 27.1495 9.0779 27.244 9.16782 27.3016C9.25773 27.357 9.3707 27.4307 9.42143 27.4653C9.47215 27.4976 9.61739 27.5967 9.7442 27.6867C9.871 27.7743 9.98397 27.855 9.9978 27.8642C10.0116 27.8757 10.1039 27.9449 10.2053 28.0233C10.3067 28.0993 10.4059 28.1731 10.4243 28.1893C10.4428 28.2054 10.505 28.2538 10.5627 28.2976C10.6203 28.3414 10.7033 28.4083 10.7494 28.4475C10.7932 28.4844 10.8624 28.542 10.8993 28.572C10.9361 28.6042 11.086 28.7357 11.2312 28.8648C11.3765 28.9939 11.6324 29.2337 11.7961 29.395C11.9621 29.5587 12.2065 29.81 12.3379 29.953C12.4716 30.0959 12.58 30.225 12.58 30.2365C12.58 30.2481 12.4947 30.3587 12.3909 30.4832C12.2849 30.6054 12.0797 30.8613 11.9344 31.0527C11.7869 31.2417 11.5171 31.6222 11.335 31.8942C11.1529 32.1663 10.8923 32.5812 10.7586 32.8164C10.6249 33.0516 10.4128 33.4504 10.2883 33.704C10.1638 33.9576 10.007 34.2965 9.81336 34.753H0.672028Z" fill="#FDB415" stroke="white" stroke-width="0.0207493"/>
<path id="Vector_5" d="M0.695083 13.9068C0.683555 13.7823 0.672028 13.5033 0.672028 13.2889V12.897L12.58 12.9085L12.5915 24.8395H12.3218C12.1719 24.8395 11.9206 24.828 11.7615 24.8164C11.6024 24.8026 11.3327 24.7749 11.1621 24.7565C10.9915 24.7381 10.784 24.7127 10.701 24.6966C10.618 24.6827 10.422 24.6458 10.2629 24.6159C10.1039 24.5836 9.93786 24.549 9.89405 24.5398C9.85025 24.5306 9.67273 24.4844 9.50212 24.4406C9.33151 24.3968 9.01566 24.3 8.79894 24.2285C8.58222 24.1548 8.37473 24.0833 8.33784 24.0672C8.30095 24.051 8.1142 23.9726 7.92285 23.8942C7.73379 23.8135 7.441 23.6821 7.2773 23.5991C7.11361 23.5184 6.89459 23.4032 6.79315 23.3455C6.6947 23.2896 6.53979 23.1989 6.44433 23.143L6.43579 23.138C6.34127 23.0804 6.14991 22.9605 6.00928 22.8683C5.86864 22.7761 5.68189 22.647 5.59428 22.5824C5.50668 22.5155 5.41676 22.451 5.39832 22.4349C5.37987 22.4187 5.32223 22.3749 5.27151 22.338C5.22079 22.2988 5.16777 22.2573 5.15393 22.2458C5.13779 22.2343 5.10782 22.2066 5.08246 22.1882C5.05941 22.1697 4.98333 22.1075 4.91416 22.0498C4.84499 21.9945 4.72511 21.8908 4.64903 21.8216C4.57294 21.7524 4.40234 21.591 4.26862 21.4619C4.1349 21.3351 3.92279 21.1161 3.79599 20.9755C3.66919 20.8371 3.53547 20.685 3.49627 20.6412C3.45708 20.5974 3.34872 20.4636 3.25189 20.3438C3.15506 20.2239 2.99367 20.0095 2.89454 19.8711C2.79309 19.7328 2.68474 19.576 2.65015 19.5253C2.61788 19.4746 2.52796 19.3316 2.44957 19.2094C2.37119 19.085 2.30894 18.972 2.30894 18.9605C2.30894 18.9489 2.29741 18.9374 2.28588 18.9374C2.27435 18.9374 2.26283 18.9259 2.26283 18.9143C2.26283 18.9028 2.23747 18.8521 2.2098 18.806C2.17983 18.7576 2.083 18.5777 1.99539 18.4071C1.90778 18.2365 1.79942 18.0175 1.75792 17.923C1.71412 17.8285 1.64956 17.6878 1.61498 17.6117C1.5804 17.5357 1.52507 17.4019 1.49048 17.312C1.4559 17.2221 1.41901 17.1253 1.40979 17.093C1.39826 17.0607 1.35907 16.9477 1.31757 16.8394C1.27838 16.731 1.22074 16.5558 1.18846 16.4475C1.15618 16.3391 1.1193 16.2192 1.11007 16.1823C1.09855 16.1454 1.05935 15.9887 1.02016 15.8365C0.980965 15.6843 0.918717 15.3938 0.879523 15.191L0.879521 15.1909C0.842633 14.9881 0.801136 14.7598 0.789608 14.6837C0.778081 14.6077 0.757331 14.4532 0.743498 14.3379C0.729665 14.2226 0.708916 14.029 0.695083 13.9068Z" fill="#2995B2" stroke="white" stroke-width="0.0207493"/>
<path id="Vector_6" d="M0.672028 40.6778V37.7153V34.7527H5.23693C8.26406 34.7527 9.80183 34.7596 9.80183 34.7757C9.80183 34.7873 9.78108 34.8472 9.75342 34.9072C9.72806 34.9694 9.64506 35.1884 9.57128 35.3982C9.49751 35.608 9.38454 35.9562 9.32229 36.1706C9.25774 36.385 9.16782 36.7124 9.12402 36.8968C9.08021 37.0812 9.01105 37.3856 8.97416 37.5769C8.93496 37.766 8.88194 38.0565 8.85658 38.2225C8.82891 38.3885 8.78741 38.7135 8.76436 38.9487C8.739 39.1839 8.70902 39.5458 8.69519 39.7556C8.68366 39.9654 8.67214 40.2605 8.67214 40.6894L0.672028 40.6778Z" fill="#577441" stroke="white" stroke-width="0.0207493"/>
<path id="Vector_7" d="M23.0013 24.9085C23.1396 24.8947 23.3702 24.8762 23.5085 24.8647C23.6468 24.8555 23.935 24.844 24.5345 24.8394V34.753L15.3701 34.7553L15.2802 34.5409C15.2294 34.4233 15.1441 34.2274 15.0865 34.1075C15.0312 33.9876 14.9159 33.7478 14.8306 33.5772C14.7453 33.4066 14.6392 33.2037 14.5977 33.1277C14.5562 33.0516 14.4571 32.8764 14.3764 32.7357C14.2957 32.5974 14.1389 32.3392 14.0283 32.1663C13.9176 31.991 13.7424 31.7305 13.6432 31.5899C13.5418 31.4469 13.3551 31.1956 13.2283 31.0296C13.1015 30.8636 12.9193 30.6354 12.8225 30.5224C12.728 30.4072 12.6357 30.2965 12.6219 30.2734C12.5965 30.2389 12.6104 30.2135 12.728 30.0798C12.8017 29.9922 13.0138 29.7731 13.196 29.5887C13.3781 29.4043 13.611 29.176 13.7124 29.0815C13.8116 28.987 13.936 28.8717 13.9868 28.8279C14.0375 28.7841 14.1412 28.6942 14.2173 28.6319C14.2934 28.5674 14.3603 28.512 14.3672 28.5051C14.3741 28.4982 14.4317 28.4498 14.494 28.4014C14.5585 28.3506 14.6139 28.3045 14.6208 28.2976C14.6277 28.2907 14.7061 28.2285 14.796 28.1593C14.8882 28.0901 14.9897 28.0117 15.0242 27.9864C15.0611 27.961 15.1003 27.9287 15.1142 27.9149C15.128 27.9034 15.2802 27.795 15.4508 27.6774C15.6214 27.5599 15.7828 27.4515 15.8081 27.4377C15.8335 27.4238 15.8658 27.4031 15.8796 27.3892C15.8957 27.3754 15.958 27.3339 16.0179 27.297C16.0802 27.2578 16.1885 27.1933 16.2577 27.1518C16.3269 27.108 16.3914 27.0734 16.4029 27.0757C16.4122 27.0757 16.4191 27.0665 16.4191 27.0526C16.4191 27.0411 16.4375 27.025 16.4606 27.0181C16.4813 27.0111 16.5989 26.9512 16.7188 26.882C16.8387 26.8106 17.1615 26.6446 17.4335 26.5085C17.7056 26.3725 17.9476 26.2549 17.9707 26.2434C17.9914 26.2319 18.1159 26.1765 18.245 26.1212C18.3765 26.0659 18.607 25.9714 18.7592 25.9114C18.9113 25.8515 19.2549 25.7316 19.52 25.644C19.7851 25.5564 20.0364 25.4757 20.0733 25.4618C20.1102 25.4503 20.3085 25.3973 20.5114 25.3466C20.7142 25.2935 20.9725 25.2313 21.0877 25.2059C21.203 25.1806 21.3782 25.146 21.4797 25.1275C21.5811 25.1091 21.7632 25.0791 21.8831 25.0584C22.003 25.0399 22.1644 25.0123 22.2405 25.0007C22.3166 24.9892 22.4618 24.9685 22.5633 24.9569C22.6647 24.9431 22.863 24.9224 23.0013 24.9085Z" fill="#EE3166" stroke="white" stroke-width="0.0207493"/>
<path id="Vector_8" d="M12.5689 12.9195V6.95974V1H12.9654C13.1845 1 13.4565 1.01153 13.5718 1.02306C13.6871 1.03689 13.8784 1.05764 13.9983 1.07147C14.1182 1.0853 14.2796 1.10605 14.3557 1.11758C14.4317 1.13141 14.5516 1.14986 14.6208 1.16139C14.69 1.17522 14.8306 1.20058 14.932 1.21902C15.0335 1.23977 15.2087 1.27666 15.324 1.30202C15.4392 1.32969 15.6398 1.38041 15.7735 1.4173C15.9073 1.45649 16.1309 1.52335 16.2692 1.56946C16.4076 1.61326 16.622 1.68704 16.7419 1.73085C16.8617 1.77465 17.0439 1.84612 17.1453 1.88762C17.2468 1.92912 17.422 2.00751 17.5373 2.06053C17.6525 2.11356 17.8231 2.19425 17.9177 2.24267C18.0122 2.28878 18.1828 2.37869 18.2981 2.44094C18.4134 2.50089 18.584 2.60002 18.6785 2.65535C18.773 2.71299 18.9805 2.84441 19.1396 2.94815C19.2987 3.0519 19.5108 3.19715 19.6122 3.27092C19.7137 3.34701 19.8958 3.48534 20.0157 3.57986C20.1356 3.67669 20.2601 3.77814 20.2923 3.8058C20.3246 3.83577 20.403 3.90263 20.4699 3.95797C20.5344 4.01099 20.7788 4.24615 21.0117 4.48132C21.2445 4.71648 21.5027 4.98622 21.5857 5.08075C21.6664 5.17527 21.7817 5.3113 21.8393 5.38046C21.897 5.44963 22.0215 5.61101 22.1183 5.73782C22.2128 5.86462 22.3811 6.09748 22.4872 6.25656C22.5955 6.41564 22.7731 6.69691 22.8837 6.88596C22.9921 7.07271 23.1581 7.37703 23.2526 7.56378C23.3448 7.75283 23.4555 7.98338 23.497 8.07791C23.5385 8.17243 23.5892 8.29232 23.6123 8.34304C23.6353 8.39376 23.7068 8.58051 23.7714 8.75803C23.8382 8.93555 23.9005 9.10616 23.912 9.13844C23.9235 9.17072 23.965 9.30444 24.0042 9.43816C24.0434 9.57187 24.108 9.80012 24.1448 9.94537C24.184 10.0906 24.2394 10.3304 24.2693 10.4756C24.2993 10.6209 24.3385 10.8445 24.3593 10.9713C24.38 11.0981 24.4077 11.2733 24.4192 11.3633C24.4307 11.4532 24.4515 11.6284 24.4653 11.7552C24.4768 11.882 24.4999 12.1771 24.5114 12.4123C24.5253 12.6474 24.5345 12.8572 24.5345 12.878C24.5345 12.9172 24.2348 12.9195 12.5689 12.9195Z" fill="#39B54A" stroke="white" stroke-width="0.0207493"/>
<g id="Vector_9">
<path d="M92.1404 13.0339C92.2539 13.0236 92.3756 13.0126 92.4311 13.0066C92.4933 13.002 92.7561 12.9951 93.0167 12.9928C93.2772 12.9905 93.623 12.9997 93.789 13.0112C93.955 13.0228 94.1671 13.0435 94.2616 13.0573C94.3562 13.0689 94.4968 13.0896 94.5729 13.1011C94.649 13.115 94.7781 13.1357 94.8611 13.1496C94.9441 13.1634 95.0985 13.1957 95.2069 13.221C95.3152 13.2464 95.4282 13.2764 95.4605 13.2879C95.4928 13.2971 95.5965 13.3294 95.691 13.3571C95.7856 13.3847 95.9377 13.4331 96.0253 13.4654C96.113 13.4977 96.2305 13.5438 96.2859 13.5669C96.3389 13.5899 96.3873 13.6107 96.3942 13.6107C96.4011 13.6107 96.5164 13.666 96.6501 13.7329C96.7862 13.7974 96.8991 13.8597 96.9037 13.8712C96.9084 13.8804 96.8484 14.0395 96.7723 14.2285C96.6939 14.4153 96.5948 14.6551 96.5533 14.7634C96.5095 14.8718 96.4588 14.9917 96.4426 15.0285C96.4242 15.0677 96.362 15.2176 96.302 15.3628C96.2421 15.5081 96.1821 15.6603 96.1637 15.6971C96.1475 15.7363 96.0945 15.8585 96.0484 15.9738C96 16.0891 95.9424 16.2251 95.8755 16.3773L95.6864 16.2874C95.5804 16.2389 95.4374 16.1721 95.3683 16.1421C95.2991 16.1098 95.1331 16.0453 94.9994 15.9992C94.8657 15.9508 94.7273 15.9023 94.6882 15.8908C94.649 15.8793 94.5729 15.8562 94.5152 15.8378C94.4576 15.8193 94.3446 15.7894 94.2616 15.7686C94.1786 15.7502 94.0495 15.7225 93.9734 15.7087C93.8974 15.6948 93.7106 15.6695 93.5585 15.651C93.4063 15.6326 93.178 15.6165 93.0512 15.6165C92.9244 15.6165 92.71 15.6326 92.574 15.651C92.4357 15.6695 92.2604 15.7064 92.1821 15.734C92.1014 15.7594 91.993 15.8147 91.94 15.8539C91.8893 15.8954 91.8293 15.96 91.8086 15.9969C91.7878 16.0361 91.7602 16.1029 91.7509 16.1467C91.7371 16.1974 91.7394 16.2666 91.7555 16.3312C91.7717 16.3934 91.8132 16.4672 91.8639 16.5179C91.9077 16.564 91.9746 16.617 92.0138 16.6355C92.053 16.6562 92.1498 16.6931 92.2328 16.7208C92.3158 16.7485 92.4126 16.7784 92.4518 16.79C92.491 16.8015 92.5648 16.8199 92.6201 16.8361C92.6731 16.8499 92.7561 16.8706 92.8045 16.8845C92.8507 16.896 93.0236 16.9329 93.1896 16.9652C93.3556 16.9975 93.5469 17.0343 93.6161 17.0482C93.6853 17.062 93.7844 17.0828 93.8351 17.092C93.8858 17.1035 94.0841 17.1496 94.2732 17.1957C94.4645 17.2395 94.6559 17.2856 94.6997 17.2995C94.7435 17.311 94.8541 17.3433 94.9418 17.3709C95.0294 17.3986 95.2023 17.4539 95.3222 17.4954C95.4421 17.5369 95.5942 17.5946 95.6565 17.6246C95.721 17.6545 95.8594 17.7283 95.9677 17.7929C96.0761 17.8551 96.2006 17.9335 96.2444 17.9658C96.2882 17.998 96.362 18.0557 96.4058 18.0949C96.4496 18.1318 96.5648 18.2401 96.6617 18.337C96.7562 18.4315 96.8876 18.5883 96.9499 18.6828C97.0144 18.7773 97.0905 18.9133 97.1182 18.9825C97.1481 19.0517 97.1919 19.1715 97.2173 19.2476C97.2403 19.3237 97.2749 19.4597 97.2934 19.5473C97.3164 19.658 97.328 19.854 97.328 20.1698C97.328 20.4995 97.3187 20.6793 97.2911 20.8038C97.2726 20.8984 97.2242 21.069 97.185 21.1843C97.1458 21.2995 97.079 21.4586 97.0375 21.5416C96.9937 21.6246 96.9406 21.7237 96.9176 21.7606C96.8968 21.7998 96.8369 21.892 96.7862 21.9681C96.7354 22.0442 96.6017 22.201 96.4864 22.314C96.3735 22.4292 96.2121 22.5722 96.1291 22.6321C96.0461 22.6921 95.9539 22.7612 95.9216 22.7866C95.8893 22.8119 95.6864 22.9203 95.472 23.0287C95.2392 23.1439 94.974 23.2569 94.815 23.3053C94.6697 23.3491 94.5199 23.3975 94.4807 23.4091C94.4415 23.4206 94.3077 23.4506 94.1809 23.4736C94.0541 23.499 93.872 23.5313 93.7775 23.5451C93.683 23.5589 93.4708 23.582 93.3048 23.5935C93.1389 23.6073 92.8184 23.6166 92.5901 23.6166C92.3619 23.6166 92.0299 23.6073 91.8524 23.5935C91.6749 23.582 91.4351 23.5612 91.3221 23.5474C91.2091 23.5336 91.0547 23.5128 90.9832 23.499C90.9094 23.4875 90.7849 23.4667 90.7065 23.4529C90.6258 23.439 90.5198 23.4206 90.4691 23.4091C90.4184 23.3975 90.2639 23.3607 90.1232 23.3284C89.9826 23.2961 89.8281 23.2592 89.7774 23.2431C89.7267 23.2292 89.5768 23.1831 89.4431 23.1393C89.3094 23.0955 89.0927 23.0171 88.959 22.9641C88.8252 22.9134 88.6039 22.8096 88.4633 22.7382C88.3226 22.6644 88.2005 22.5929 88.1912 22.5745C88.1774 22.556 88.2051 22.4707 88.265 22.3439C88.318 22.231 88.3595 22.1364 88.3595 22.1295C88.3595 22.1226 88.3964 22.0396 88.4402 21.9451C88.484 21.8505 88.5209 21.7675 88.5209 21.7606C88.5209 21.7537 88.5624 21.6615 88.6131 21.5531C88.6639 21.4448 88.7054 21.3526 88.7054 21.3456C88.7054 21.3387 88.7353 21.2673 88.7745 21.1843C88.8137 21.1013 88.8737 20.9675 88.9129 20.8845C88.952 20.8015 88.982 20.7301 88.982 20.7232C88.982 20.7162 89.012 20.6471 89.0489 20.5687C89.0835 20.488 89.1342 20.3773 89.1595 20.3197C89.1849 20.2621 89.2195 20.1814 89.2379 20.1399C89.2564 20.1007 89.284 20.0661 89.3002 20.0661C89.314 20.0661 89.3878 20.1007 89.4616 20.1422C89.533 20.1837 89.646 20.2413 89.7083 20.2713L89.7366 20.2844C89.8003 20.314 89.885 20.3534 89.9388 20.3773C90.0034 20.4073 90.1279 20.458 90.2155 20.4926C90.3031 20.5272 90.4806 20.5894 90.6074 20.6309C90.7342 20.6747 90.9256 20.7324 91.0339 20.7577C91.1423 20.7854 91.2714 20.8177 91.3221 20.8292C91.3728 20.8407 91.472 20.8615 91.5411 20.8753C91.6103 20.8891 91.7302 20.9076 91.8063 20.9191C91.8823 20.9306 92.0898 20.9514 92.2674 20.9652C92.4449 20.9791 92.7192 20.9837 92.8783 20.9768C93.0374 20.9675 93.2242 20.9514 93.2933 20.9399C93.3625 20.926 93.4616 20.903 93.5123 20.8891C93.5631 20.8753 93.6461 20.8407 93.6968 20.8131C93.7475 20.7854 93.819 20.7278 93.8536 20.6863C93.8974 20.6309 93.9227 20.5733 93.9319 20.4926C93.9389 20.4165 93.9319 20.3474 93.9066 20.2851C93.8881 20.2344 93.8466 20.1698 93.819 20.1445C93.789 20.1168 93.7198 20.0684 93.6622 20.0384C93.6046 20.0061 93.4962 19.96 93.4201 19.9347C93.344 19.9093 93.2242 19.8701 93.155 19.8517C93.0858 19.8309 92.8945 19.7825 92.7285 19.7433C92.5625 19.7064 92.378 19.6626 92.3135 19.6488C92.2512 19.6373 92.1567 19.6165 92.106 19.605C92.0553 19.5935 91.9192 19.5612 91.8063 19.5358C91.6933 19.5082 91.5319 19.4713 91.4489 19.4528L91.4174 19.445C91.3336 19.4241 91.215 19.3945 91.1377 19.3721C91.0501 19.3468 90.9025 19.3053 90.8149 19.2776C90.7273 19.2522 90.5405 19.19 90.3999 19.1439C90.2593 19.0955 90.0679 19.0194 89.9734 18.9733C89.8789 18.9272 89.7705 18.8718 89.7313 18.8488C89.6921 18.8257 89.6322 18.7888 89.593 18.7635C89.5561 18.7381 89.5077 18.7058 89.4892 18.6897C89.4708 18.6759 89.3763 18.6021 89.2817 18.526C89.1872 18.4499 89.0627 18.337 89.0051 18.2747C88.9474 18.2125 88.876 18.1318 88.8437 18.0949C88.8114 18.0557 88.7653 17.9957 88.7422 17.9565C88.7181 17.9214 88.6708 17.838 88.6325 17.7703L88.627 17.7606C88.5901 17.6914 88.5394 17.5831 88.5163 17.5185C88.4932 17.4562 88.4518 17.3248 88.4264 17.2303C88.401 17.1358 88.3688 16.9375 88.3549 16.7923C88.3434 16.647 88.3388 16.4026 88.3457 16.2505C88.3526 16.0983 88.3711 15.9069 88.3849 15.8239C88.3987 15.741 88.4356 15.5911 88.4679 15.4897C88.5002 15.3882 88.5763 15.2015 88.6362 15.0747C88.6961 14.9479 88.8114 14.7519 88.8921 14.6389C88.9728 14.5259 89.118 14.3553 89.2126 14.2585C89.3071 14.1617 89.4639 14.0233 89.5584 13.9519C89.6529 13.8804 89.8143 13.7744 89.9158 13.7144C90.0172 13.6522 90.1993 13.5576 90.3192 13.5023C90.4391 13.4447 90.672 13.3548 90.838 13.2994C91.004 13.2464 91.1953 13.1888 91.2645 13.1749C91.3336 13.1611 91.4443 13.138 91.5066 13.1265C91.5711 13.115 91.6749 13.0942 91.7371 13.0827C91.8017 13.0712 91.9561 13.0504 92.0852 13.0389L92.1404 13.0339Z" fill="white"/>
<path d="M35.3559 30.4178C35.4758 30.404 35.6326 30.3901 35.7018 30.3855C35.7709 30.3809 36.0868 30.3809 36.4049 30.3855C36.7208 30.3901 37.0482 30.404 37.1312 30.4178C37.2142 30.4316 37.3548 30.4524 37.4424 30.4662C37.53 30.4778 37.7029 30.51 37.8228 30.5354C37.9427 30.5607 38.0672 30.5907 38.0995 30.6022C38.1318 30.6115 38.2194 30.6391 38.2955 30.6599C38.3715 30.6806 38.496 30.7198 38.5721 30.7452C38.6482 30.7729 38.7566 30.8144 38.8142 30.8374C38.8718 30.8628 38.9594 30.8997 39.0102 30.9204C39.0609 30.9412 39.1808 30.9988 39.2753 31.0495C39.3698 31.0979 39.5358 31.1925 39.6442 31.257C39.7525 31.3239 39.8609 31.393 39.8863 31.4138C39.9116 31.4368 39.99 31.4945 40.0592 31.5475C40.1283 31.5982 40.2828 31.7319 40.4027 31.8426C40.5226 31.9533 40.677 32.1101 40.8776 32.336L40.7508 32.4536C40.6793 32.5204 40.5825 32.6103 40.5318 32.6542C40.4811 32.698 40.3566 32.8086 40.2551 32.8962C40.1537 32.9838 40.0292 33.0945 39.9785 33.1406C39.9278 33.1867 39.7871 33.3089 39.6672 33.415C39.5473 33.5187 39.4182 33.6317 39.379 33.6663C39.3398 33.7009 39.1669 33.8553 38.6759 34.2911L38.4614 34.079C38.3462 33.9637 38.1756 33.8138 38.088 33.7493C38.0003 33.6847 37.8735 33.5994 37.8113 33.5625C37.7467 33.5233 37.6292 33.4611 37.5462 33.4219C37.4632 33.3827 37.3341 33.3297 37.258 33.3043C37.1819 33.2766 37.0274 33.2397 36.9121 33.2167C36.7485 33.1867 36.617 33.1821 36.2781 33.1913C35.9461 33.2006 35.8101 33.2144 35.6672 33.2513C35.5657 33.2789 35.4251 33.3227 35.3559 33.3504C35.2868 33.3781 35.1669 33.4357 35.0908 33.4795C35.0147 33.521 34.8994 33.5971 34.8372 33.6455C34.7726 33.6939 34.6597 33.8 34.5836 33.8807C34.5075 33.9614 34.4245 34.0536 34.4015 34.0859C34.3761 34.1158 34.3023 34.2449 34.2378 34.3718C34.1732 34.4986 34.0971 34.6761 34.0695 34.7637C34.0418 34.8513 34.0049 35.0242 33.9842 35.1441C33.9657 35.2663 33.9496 35.5107 33.9496 35.6974C33.9496 35.8934 33.9634 36.117 33.9842 36.2392C34.0049 36.3545 34.0418 36.5136 34.0672 36.5966C34.0925 36.6796 34.1294 36.7833 34.1502 36.8271C34.1686 36.8709 34.2032 36.9447 34.2239 36.9885C34.247 37.0323 34.2793 37.0946 34.2977 37.1268C34.3161 37.1591 34.36 37.226 34.3968 37.2767C34.4337 37.3274 34.5375 37.445 34.6274 37.5372C34.7173 37.6317 34.8649 37.7562 34.9525 37.8162C35.0401 37.8761 35.1507 37.9407 35.1945 37.9614C35.2383 37.9822 35.3213 38.0191 35.379 38.0444C35.4366 38.0698 35.575 38.1136 35.6902 38.1413C35.8724 38.1897 35.9554 38.1966 36.3473 38.1966C36.6516 38.1989 36.8338 38.1897 36.9121 38.1689C36.9744 38.1528 37.0735 38.1274 37.1312 38.1136C37.1888 38.0998 37.2972 38.0698 37.3732 38.0444C37.4493 38.0191 37.53 37.9891 37.5508 37.9776C37.59 37.9591 37.5923 37.8738 37.5923 35.3977H40.5664L40.5687 39.7205L40.3889 39.8381C40.2897 39.905 40.1352 39.9995 40.0476 40.0479C39.96 40.0986 39.8125 40.1724 39.7249 40.2139C39.6373 40.2554 39.5335 40.3038 39.4943 40.32C39.4551 40.3361 39.3767 40.3707 39.3145 40.3983C39.2545 40.4237 39.0793 40.4906 38.9226 40.5413C38.7681 40.5943 38.6113 40.645 38.5721 40.6543C38.5329 40.6658 38.4038 40.6981 38.2839 40.7303C38.164 40.7603 37.9865 40.8018 37.892 40.8226L37.875 40.8259C37.7813 40.8442 37.6524 40.8693 37.5807 40.8802C37.5047 40.894 37.3686 40.9148 37.281 40.9286C37.1934 40.9424 37.032 40.9632 36.9237 40.977C36.8153 40.9886 36.4741 41.0001 36.1629 41.0001C35.8516 41.0001 35.5104 40.9886 35.402 40.977C35.2937 40.9632 35.1392 40.9424 35.0562 40.9286C34.9732 40.9148 34.8533 40.894 34.7911 40.8825C34.7265 40.8687 34.5928 40.8387 34.4914 40.8156C34.3899 40.7903 34.2147 40.7419 34.0994 40.705C33.9842 40.6681 33.7997 40.5989 33.6844 40.5505C33.5692 40.5044 33.4193 40.4375 33.3501 40.403C33.281 40.3684 33.1611 40.3061 33.085 40.2623C33.0089 40.2208 32.8545 40.124 32.7392 40.0479C32.6239 39.9741 32.4671 39.8635 32.3887 39.8035C32.3104 39.7459 32.1121 39.5638 31.9484 39.3978C31.787 39.2341 31.6118 39.0473 31.5611 38.9828C31.5103 38.9205 31.3974 38.7591 31.3098 38.6254C31.2222 38.4917 31.0977 38.2796 31.0331 38.1528C30.9686 38.026 30.8879 37.8554 30.8556 37.7724C30.821 37.6894 30.7749 37.5649 30.7495 37.4957C30.7242 37.4265 30.6827 37.2974 30.6573 37.2075C30.6319 37.1199 30.5997 36.9885 30.5858 36.9193C30.572 36.8502 30.5513 36.7372 30.5374 36.6726C30.5259 36.6058 30.5028 36.4029 30.489 36.2231C30.4729 36.0271 30.4683 35.7136 30.4775 35.4553C30.4844 35.1994 30.5098 34.902 30.5374 34.7406C30.5605 34.5885 30.602 34.3856 30.625 34.2911C30.6504 34.1965 30.6988 34.0351 30.7334 33.9337C30.7657 33.8323 30.8325 33.6617 30.8786 33.5533C30.9224 33.4449 30.9824 33.3158 31.0101 33.2651C31.0377 33.2144 31.0907 33.1153 31.1299 33.0461C31.1668 32.9769 31.2521 32.8363 31.3213 32.7348C31.3882 32.6334 31.4827 32.5043 31.5265 32.4467C31.5726 32.389 31.6395 32.306 31.6786 32.2622C31.7155 32.2184 31.8262 32.1031 31.9207 32.0086C32.0153 31.9141 32.1305 31.8034 32.1743 31.7642C32.2181 31.725 32.3449 31.6259 32.4556 31.5406C32.5686 31.4553 32.7138 31.3515 32.7784 31.3123L32.7894 31.3055C32.8544 31.2652 32.9327 31.2166 32.9697 31.1948C33.0089 31.174 33.1588 31.0956 33.304 31.0219C33.4493 30.9481 33.6429 30.8582 33.7305 30.8236C33.8182 30.7867 33.9657 30.7337 34.0533 30.706C34.1409 30.676 34.3138 30.6276 34.4337 30.5953C34.5536 30.5654 34.7104 30.5285 34.7796 30.5146C34.8487 30.5008 34.9571 30.4778 35.0216 30.4662C35.0839 30.4547 35.236 30.4316 35.3559 30.4178Z" fill="white"/>
<path d="M81.8695 30.4178C82.0102 30.404 82.1808 30.3901 82.2499 30.3855C82.3191 30.3809 82.6511 30.3809 82.9877 30.3855C83.3243 30.3878 83.6771 30.404 83.7716 30.4155C83.8661 30.4293 84.0321 30.4524 84.1405 30.4662C84.2488 30.4801 84.3779 30.4985 84.4286 30.51C84.4794 30.5216 84.5831 30.5423 84.6592 30.5561C84.7353 30.57 84.9059 30.6069 85.0396 30.6391C85.1733 30.6714 85.3601 30.7221 85.4546 30.7521C85.5491 30.7821 85.7105 30.8374 85.812 30.8743C85.9134 30.9135 86.0379 30.9619 86.0886 30.9827C86.1352 31.0017 86.2559 31.0598 86.3682 31.1138L86.3975 31.1279C86.5151 31.1878 86.6212 31.2478 86.6327 31.2593C86.6419 31.2732 86.6258 31.34 86.5958 31.4092C86.5682 31.4783 86.5197 31.5936 86.4921 31.6628C86.4644 31.7319 86.4229 31.8311 86.3999 31.8818C86.3768 31.9325 86.2892 32.1446 86.2039 32.3544C86.1186 32.5642 86.0264 32.7879 85.9964 32.8501C85.9687 32.9147 85.9364 32.9908 85.9272 33.023C85.919 33.0517 85.8871 33.126 85.8558 33.1988L85.8442 33.2259C85.8073 33.3043 85.7774 33.3735 85.7774 33.3804C85.7774 33.3873 85.7543 33.4403 85.729 33.5026C85.7013 33.5625 85.6644 33.6455 85.6483 33.687C85.6298 33.7262 85.6114 33.7608 85.6045 33.7608C85.5984 33.7608 85.5243 33.7268 85.431 33.684L85.3923 33.6663C85.2794 33.6132 85.0811 33.5256 84.9474 33.4726C84.8137 33.4173 84.6269 33.3458 84.5324 33.3158C84.4379 33.2836 84.2557 33.2305 84.1289 33.1982C84.0021 33.166 83.8154 33.1222 83.7139 33.1037C83.6125 33.083 83.3889 33.0507 83.2183 33.0323C83.0476 33.0138 82.8402 33 82.7572 33C82.6742 33 82.5128 33.0115 82.3998 33.0253C82.2868 33.0369 82.1508 33.0599 82.1001 33.0738C82.0494 33.0876 81.9779 33.1083 81.9387 33.1199C81.9045 33.1319 81.851 33.1528 81.8103 33.1686L81.7935 33.1752C81.7543 33.1936 81.6828 33.2421 81.6367 33.2836C81.5906 33.3227 81.5398 33.3827 81.5237 33.415C81.5076 33.4472 81.4891 33.5118 81.4799 33.5602C81.473 33.6063 81.4753 33.687 81.4891 33.7377C81.503 33.7954 81.5445 33.8599 81.5975 33.9107C81.6459 33.9545 81.7266 34.0121 81.7773 34.0351C81.828 34.0605 81.911 34.0951 81.9618 34.1135C82.0125 34.132 82.137 34.1689 82.2384 34.1942C82.3399 34.2219 82.5105 34.2634 82.6188 34.2888C82.7272 34.3141 82.8655 34.3464 82.9301 34.3602C82.9923 34.3741 83.2321 34.4202 83.4603 34.4663C83.6886 34.5101 84.009 34.5839 84.175 34.6277C84.341 34.6692 84.5001 34.7107 84.5324 34.7199C84.5647 34.7268 84.7191 34.7752 84.8782 34.8259C85.0373 34.8767 85.2125 34.9389 85.2702 34.9643C85.3278 34.9919 85.4315 35.0403 85.5007 35.0749C85.5699 35.1095 85.669 35.1602 85.7197 35.1879C85.7705 35.2156 85.8903 35.2986 85.9872 35.37C86.084 35.4415 86.2246 35.5568 86.2984 35.6259C86.3745 35.6951 86.4967 35.8265 86.5728 35.9187C86.6489 36.011 86.748 36.1608 86.7941 36.2554C86.8425 36.3476 86.9001 36.4813 86.9255 36.5505C86.9509 36.6196 86.9831 36.7234 86.997 36.781C87.0085 36.8386 87.0339 36.9424 87.0477 37.0116C87.0638 37.0853 87.0777 37.3113 87.0777 37.5534C87.0777 37.8023 87.0661 38.0191 87.0477 38.0951C87.0339 38.1643 87.0085 38.2681 86.9947 38.3257C86.9831 38.3833 86.9509 38.4917 86.9255 38.5678C86.9001 38.6439 86.8379 38.7891 86.7895 38.8905C86.7411 38.992 86.6742 39.1211 86.6419 39.1787C86.6073 39.2364 86.5244 39.3563 86.4575 39.4439C86.3883 39.5315 86.2684 39.6675 86.1877 39.7436C86.1071 39.8197 86.0079 39.9096 85.9664 39.9465C85.9272 39.9811 85.8096 40.0664 85.7082 40.1355C85.6068 40.2047 85.5145 40.2623 85.5007 40.2623C85.4869 40.2623 85.4753 40.2692 85.4707 40.2808C85.4684 40.29 85.3923 40.3361 85.3047 40.3822C85.2171 40.4283 85.0765 40.4929 84.9935 40.5275C84.9105 40.562 84.8137 40.6035 84.7745 40.6197C84.7353 40.6381 84.6269 40.6773 84.5324 40.7096C84.4379 40.7396 84.2857 40.7834 84.1981 40.8041C84.1105 40.8249 83.9629 40.8548 83.8753 40.871C83.7877 40.8894 83.6402 40.9148 83.5526 40.9286C83.4649 40.9424 83.2966 40.9632 83.1837 40.977C83.0707 40.9886 82.6834 41.0001 82.3237 41.0001C81.9664 41.0001 81.5675 40.9886 81.4361 40.977C81.307 40.9632 81.1179 40.9424 81.0165 40.9286C80.9151 40.9171 80.7744 40.8963 80.7053 40.8848C80.6361 40.8733 80.4793 40.8456 80.3594 40.8272C80.2395 40.8064 80.0528 40.7695 79.9444 40.7442C79.8361 40.7188 79.7185 40.6911 79.6793 40.6796C79.6401 40.6704 79.5686 40.6496 79.5179 40.6335C79.4672 40.6197 79.3381 40.5828 79.2297 40.5482C79.1214 40.5159 78.9508 40.4583 78.8493 40.4191C78.7479 40.3799 78.598 40.3177 78.515 40.2808C78.432 40.2439 78.2891 40.1747 78.1969 40.1286C78.1046 40.0825 78.0009 40.0226 77.9041 39.9465L78.0055 39.7182L78.0055 39.7182C78.0609 39.5937 78.1346 39.4277 78.1715 39.3516C78.2061 39.2756 78.2545 39.1672 78.2799 39.1096C78.3052 39.0519 78.3513 38.9436 78.3836 38.8675C78.4159 38.7914 78.4781 38.6485 78.5242 38.5516C78.5704 38.4525 78.6072 38.3672 78.6072 38.3603C78.6072 38.3534 78.6372 38.2842 78.6741 38.2058L78.6889 38.1734C78.7241 38.0965 78.7675 38.0016 78.7917 37.9453C78.8193 37.883 78.8655 37.7793 78.8954 37.7147C78.9231 37.6525 78.9531 37.5787 78.96 37.5534C78.9669 37.528 78.9876 37.4957 79.0038 37.4796C79.0268 37.4588 79.0822 37.4773 79.2643 37.5695C79.3911 37.634 79.594 37.7309 79.7139 37.7862C79.8338 37.8392 80.0782 37.9315 80.2557 37.9891C80.4332 38.0467 80.6084 38.1044 80.6476 38.1159C80.6868 38.1251 80.7583 38.1459 80.809 38.1597C80.8597 38.1735 80.9427 38.1943 80.9934 38.2081C81.0442 38.2219 81.1433 38.2427 81.2125 38.2565C81.2816 38.2681 81.4522 38.2957 81.5929 38.3188C81.7773 38.3464 81.994 38.358 82.3883 38.358C82.8309 38.358 82.9647 38.3511 83.1145 38.3165C83.216 38.2934 83.3451 38.2519 83.4004 38.2243C83.4557 38.1989 83.5318 38.1413 83.5687 38.1021C83.6033 38.0606 83.6425 38.0006 83.6563 37.9683C83.6701 37.9361 83.6794 37.8761 83.6794 37.8369C83.6794 37.7954 83.6586 37.7193 83.6355 37.6686C83.6125 37.6179 83.5641 37.551 83.5272 37.5188C83.4903 37.4865 83.4027 37.4335 83.3335 37.3989C83.2644 37.3643 83.1122 37.3113 82.9992 37.2767C82.8863 37.2421 82.7134 37.196 82.6188 37.1706C82.5243 37.1453 82.4044 37.1176 82.3537 37.1061C82.303 37.0946 82.1531 37.0646 82.0194 37.0369C81.8857 37.0093 81.6897 36.9654 81.5813 36.9401C81.473 36.9147 81.3393 36.8825 81.2816 36.8686C81.224 36.8548 81.0119 36.7971 80.809 36.7418C80.6061 36.6865 80.3663 36.615 80.2787 36.585C80.1911 36.5551 80.0551 36.5067 79.979 36.4813C79.9029 36.4536 79.7623 36.3937 79.6678 36.3453C79.5732 36.2992 79.4003 36.1977 79.2874 36.1239C79.1652 36.0432 78.9738 35.8796 78.824 35.732C78.681 35.5937 78.5219 35.4115 78.4666 35.3285C78.4136 35.2455 78.3467 35.128 78.319 35.0634C78.2914 35.0012 78.2476 34.8859 78.2199 34.8098C78.1946 34.7337 78.1623 34.6207 78.1484 34.5562C78.1346 34.4939 78.1139 34.3925 78.1 34.3326C78.0885 34.2703 78.077 34.049 78.077 33.8369C78.077 33.6017 78.0908 33.3781 78.1116 33.2651C78.13 33.1637 78.1646 33.0138 78.1899 32.9308C78.213 32.8478 78.2545 32.7302 78.2799 32.6657C78.3052 32.6034 78.3582 32.4835 78.3997 32.4005C78.4412 32.3175 78.5404 32.1585 78.6211 32.0432C78.7018 31.9302 78.8217 31.7781 78.8885 31.7089C78.9554 31.6397 79.0568 31.5406 79.1145 31.4876C79.1721 31.4368 79.3012 31.3377 79.4026 31.2662C79.5041 31.1948 79.6286 31.1141 79.6793 31.0841C79.73 31.0564 79.8545 30.9919 79.956 30.9412C80.0574 30.8927 80.2188 30.819 80.3133 30.7821C80.4078 30.7429 80.5485 30.6945 80.6246 30.6714C80.7006 30.6461 80.8413 30.6069 80.9358 30.5838C81.0303 30.5584 81.1756 30.5262 81.2586 30.5123C81.3416 30.4962 81.4545 30.4754 81.5122 30.4639C81.5698 30.4524 81.7289 30.4316 81.8695 30.4178Z" fill="white"/>
<path d="M92.1404 13.0339C92.2539 13.0236 92.3756 13.0126 92.4311 13.0066C92.4933 13.002 92.7561 12.9951 93.0167 12.9928C93.2772 12.9905 93.623 12.9997 93.789 13.0112C93.955 13.0228 94.1671 13.0435 94.2616 13.0573C94.3562 13.0689 94.4968 13.0896 94.5729 13.1011C94.649 13.115 94.7781 13.1357 94.8611 13.1496C94.9441 13.1634 95.0985 13.1957 95.2069 13.221C95.3152 13.2464 95.4282 13.2764 95.4605 13.2879C95.4928 13.2971 95.5965 13.3294 95.691 13.3571C95.7856 13.3847 95.9377 13.4331 96.0253 13.4654C96.113 13.4977 96.2305 13.5438 96.2859 13.5669C96.3389 13.5899 96.3873 13.6107 96.3942 13.6107C96.4011 13.6107 96.5164 13.666 96.6501 13.7329C96.7862 13.7974 96.8991 13.8597 96.9037 13.8712C96.9084 13.8804 96.8484 14.0395 96.7723 14.2285C96.6939 14.4153 96.5948 14.6551 96.5533 14.7634C96.5095 14.8718 96.4588 14.9917 96.4426 15.0285C96.4242 15.0677 96.362 15.2176 96.302 15.3628C96.2421 15.5081 96.1821 15.6603 96.1637 15.6971C96.1475 15.7363 96.0945 15.8585 96.0484 15.9738C96 16.0891 95.9424 16.2251 95.8755 16.3773L95.6864 16.2874C95.5804 16.2389 95.4374 16.1721 95.3683 16.1421C95.2991 16.1098 95.1331 16.0453 94.9994 15.9992C94.8657 15.9508 94.7273 15.9023 94.6882 15.8908C94.649 15.8793 94.5729 15.8562 94.5152 15.8378C94.4576 15.8193 94.3446 15.7894 94.2616 15.7686C94.1786 15.7502 94.0495 15.7225 93.9734 15.7087C93.8974 15.6948 93.7106 15.6695 93.5585 15.651C93.4063 15.6326 93.178 15.6165 93.0512 15.6165C92.9244 15.6165 92.71 15.6326 92.574 15.651C92.4357 15.6695 92.2604 15.7064 92.1821 15.734C92.1014 15.7594 91.993 15.8147 91.94 15.8539C91.8893 15.8954 91.8293 15.96 91.8086 15.9969C91.7878 16.0361 91.7602 16.1029 91.7509 16.1467C91.7371 16.1974 91.7394 16.2666 91.7555 16.3312C91.7717 16.3934 91.8132 16.4672 91.8639 16.5179C91.9077 16.564 91.9746 16.617 92.0138 16.6355C92.053 16.6562 92.1498 16.6931 92.2328 16.7208C92.3158 16.7485 92.4126 16.7784 92.4518 16.79C92.491 16.8015 92.5648 16.8199 92.6201 16.8361C92.6731 16.8499 92.7561 16.8706 92.8045 16.8845C92.8507 16.896 93.0236 16.9329 93.1896 16.9652C93.3556 16.9975 93.5469 17.0343 93.6161 17.0482C93.6853 17.062 93.7844 17.0828 93.8351 17.092C93.8858 17.1035 94.0841 17.1496 94.2732 17.1957C94.4645 17.2395 94.6559 17.2856 94.6997 17.2995C94.7435 17.311 94.8541 17.3433 94.9418 17.3709C95.0294 17.3986 95.2023 17.4539 95.3222 17.4954C95.4421 17.5369 95.5942 17.5946 95.6565 17.6246C95.721 17.6545 95.8594 17.7283 95.9677 17.7929C96.0761 17.8551 96.2006 17.9335 96.2444 17.9658C96.2882 17.998 96.362 18.0557 96.4058 18.0949C96.4496 18.1318 96.5648 18.2401 96.6617 18.337C96.7562 18.4315 96.8876 18.5883 96.9499 18.6828C97.0144 18.7773 97.0905 18.9133 97.1182 18.9825C97.1481 19.0517 97.1919 19.1715 97.2173 19.2476C97.2403 19.3237 97.2749 19.4597 97.2934 19.5473C97.3164 19.658 97.328 19.854 97.328 20.1698C97.328 20.4995 97.3187 20.6793 97.2911 20.8038C97.2726 20.8984 97.2242 21.069 97.185 21.1843C97.1458 21.2995 97.079 21.4586 97.0375 21.5416C96.9937 21.6246 96.9406 21.7237 96.9176 21.7606C96.8968 21.7998 96.8369 21.892 96.7862 21.9681C96.7354 22.0442 96.6017 22.201 96.4864 22.314C96.3735 22.4292 96.2121 22.5722 96.1291 22.6321C96.0461 22.6921 95.9539 22.7612 95.9216 22.7866C95.8893 22.8119 95.6864 22.9203 95.472 23.0287C95.2392 23.1439 94.974 23.2569 94.815 23.3053C94.6697 23.3491 94.5199 23.3975 94.4807 23.4091C94.4415 23.4206 94.3077 23.4506 94.1809 23.4736C94.0541 23.499 93.872 23.5313 93.7775 23.5451C93.683 23.5589 93.4708 23.582 93.3048 23.5935C93.1389 23.6073 92.8184 23.6166 92.5901 23.6166C92.3619 23.6166 92.0299 23.6073 91.8524 23.5935C91.6749 23.582 91.4351 23.5612 91.3221 23.5474C91.2091 23.5336 91.0547 23.5128 90.9832 23.499C90.9094 23.4875 90.7849 23.4667 90.7065 23.4529C90.6258 23.439 90.5198 23.4206 90.4691 23.4091C90.4184 23.3975 90.2639 23.3607 90.1232 23.3284C89.9826 23.2961 89.8281 23.2592 89.7774 23.2431C89.7267 23.2292 89.5768 23.1831 89.4431 23.1393C89.3094 23.0955 89.0927 23.0171 88.959 22.9641C88.8252 22.9134 88.6039 22.8096 88.4633 22.7382C88.3226 22.6644 88.2005 22.5929 88.1912 22.5745C88.1774 22.556 88.2051 22.4707 88.265 22.3439C88.318 22.231 88.3595 22.1364 88.3595 22.1295C88.3595 22.1226 88.3964 22.0396 88.4402 21.9451C88.484 21.8505 88.5209 21.7675 88.5209 21.7606C88.5209 21.7537 88.5624 21.6615 88.6131 21.5531C88.6639 21.4448 88.7054 21.3526 88.7054 21.3456C88.7054 21.3387 88.7353 21.2673 88.7745 21.1843C88.8137 21.1013 88.8737 20.9675 88.9129 20.8845C88.952 20.8015 88.982 20.7301 88.982 20.7232C88.982 20.7162 89.012 20.6471 89.0489 20.5687C89.0835 20.488 89.1342 20.3773 89.1595 20.3197C89.1849 20.2621 89.2195 20.1814 89.2379 20.1399C89.2564 20.1007 89.284 20.0661 89.3002 20.0661C89.314 20.0661 89.3878 20.1007 89.4616 20.1422C89.533 20.1837 89.646 20.2413 89.7083 20.2713L89.7366 20.2844C89.8003 20.314 89.885 20.3534 89.9388 20.3773C90.0034 20.4073 90.1279 20.458 90.2155 20.4926C90.3031 20.5272 90.4806 20.5894 90.6074 20.6309C90.7342 20.6747 90.9256 20.7324 91.0339 20.7577C91.1423 20.7854 91.2714 20.8177 91.3221 20.8292C91.3728 20.8407 91.472 20.8615 91.5411 20.8753C91.6103 20.8891 91.7302 20.9076 91.8063 20.9191C91.8823 20.9306 92.0898 20.9514 92.2674 20.9652C92.4449 20.9791 92.7192 20.9837 92.8783 20.9768C93.0374 20.9675 93.2242 20.9514 93.2933 20.9399C93.3625 20.926 93.4616 20.903 93.5123 20.8891C93.5631 20.8753 93.6461 20.8407 93.6968 20.8131C93.7475 20.7854 93.819 20.7278 93.8536 20.6863C93.8974 20.6309 93.9227 20.5733 93.9319 20.4926C93.9389 20.4165 93.9319 20.3474 93.9066 20.2851C93.8881 20.2344 93.8466 20.1698 93.819 20.1445C93.789 20.1168 93.7198 20.0684 93.6622 20.0384C93.6046 20.0061 93.4962 19.96 93.4201 19.9347C93.344 19.9093 93.2242 19.8701 93.155 19.8517C93.0858 19.8309 92.8945 19.7825 92.7285 19.7433C92.5625 19.7064 92.378 19.6626 92.3135 19.6488C92.2512 19.6373 92.1567 19.6165 92.106 19.605C92.0553 19.5935 91.9192 19.5612 91.8063 19.5358C91.6933 19.5082 91.5319 19.4713 91.4489 19.4528L91.4174 19.445C91.3336 19.4241 91.215 19.3945 91.1377 19.3721C91.0501 19.3468 90.9025 19.3053 90.8149 19.2776C90.7273 19.2522 90.5405 19.19 90.3999 19.1439C90.2593 19.0955 90.0679 19.0194 89.9734 18.9733C89.8789 18.9272 89.7705 18.8718 89.7313 18.8488C89.6921 18.8257 89.6322 18.7888 89.593 18.7635C89.5561 18.7381 89.5077 18.7058 89.4892 18.6897C89.4708 18.6759 89.3763 18.6021 89.2817 18.526C89.1872 18.4499 89.0627 18.337 89.0051 18.2747C88.9474 18.2125 88.876 18.1318 88.8437 18.0949C88.8114 18.0557 88.7653 17.9957 88.7422 17.9565C88.7181 17.9214 88.6708 17.838 88.6325 17.7703L88.627 17.7606C88.5901 17.6914 88.5394 17.5831 88.5163 17.5185C88.4932 17.4562 88.4518 17.3248 88.4264 17.2303C88.401 17.1358 88.3688 16.9375 88.3549 16.7923C88.3434 16.647 88.3388 16.4026 88.3457 16.2505C88.3526 16.0983 88.3711 15.9069 88.3849 15.8239C88.3987 15.741 88.4356 15.5911 88.4679 15.4897C88.5002 15.3882 88.5763 15.2015 88.6362 15.0747C88.6961 14.9479 88.8114 14.7519 88.8921 14.6389C88.9728 14.5259 89.118 14.3553 89.2126 14.2585C89.3071 14.1617 89.4639 14.0233 89.5584 13.9519C89.6529 13.8804 89.8143 13.7744 89.9158 13.7144C90.0172 13.6522 90.1993 13.5576 90.3192 13.5023C90.4391 13.4447 90.672 13.3548 90.838 13.2994C91.004 13.2464 91.1953 13.1888 91.2645 13.1749C91.3336 13.1611 91.4443 13.138 91.5066 13.1265C91.5711 13.115 91.6749 13.0942 91.7371 13.0827C91.8017 13.0712 91.9561 13.0504 92.0852 13.0389L92.1404 13.0339Z" stroke="white" stroke-width="0.0207493"/>
<path d="M35.3559 30.4178C35.4758 30.404 35.6326 30.3901 35.7018 30.3855C35.7709 30.3809 36.0868 30.3809 36.4049 30.3855C36.7208 30.3901 37.0482 30.404 37.1312 30.4178C37.2142 30.4316 37.3548 30.4524 37.4424 30.4662C37.53 30.4778 37.7029 30.51 37.8228 30.5354C37.9427 30.5607 38.0672 30.5907 38.0995 30.6022C38.1318 30.6115 38.2194 30.6391 38.2955 30.6599C38.3715 30.6806 38.496 30.7198 38.5721 30.7452C38.6482 30.7729 38.7566 30.8144 38.8142 30.8374C38.8718 30.8628 38.9594 30.8997 39.0102 30.9204C39.0609 30.9412 39.1808 30.9988 39.2753 31.0495C39.3698 31.0979 39.5358 31.1925 39.6442 31.257C39.7525 31.3239 39.8609 31.393 39.8863 31.4138C39.9116 31.4368 39.99 31.4945 40.0592 31.5475C40.1283 31.5982 40.2828 31.7319 40.4027 31.8426C40.5226 31.9533 40.677 32.1101 40.8776 32.336L40.7508 32.4536C40.6793 32.5204 40.5825 32.6103 40.5318 32.6542C40.4811 32.698 40.3566 32.8086 40.2551 32.8962C40.1537 32.9838 40.0292 33.0945 39.9785 33.1406C39.9278 33.1867 39.7871 33.3089 39.6672 33.415C39.5473 33.5187 39.4182 33.6317 39.379 33.6663C39.3398 33.7009 39.1669 33.8553 38.6759 34.2911L38.4614 34.079C38.3462 33.9637 38.1756 33.8138 38.088 33.7493C38.0003 33.6847 37.8735 33.5994 37.8113 33.5625C37.7467 33.5233 37.6292 33.4611 37.5462 33.4219C37.4632 33.3827 37.3341 33.3297 37.258 33.3043C37.1819 33.2766 37.0274 33.2397 36.9121 33.2167C36.7485 33.1867 36.617 33.1821 36.2781 33.1913C35.9461 33.2006 35.8101 33.2144 35.6672 33.2513C35.5657 33.2789 35.4251 33.3227 35.3559 33.3504C35.2868 33.3781 35.1669 33.4357 35.0908 33.4795C35.0147 33.521 34.8994 33.5971 34.8372 33.6455C34.7726 33.6939 34.6597 33.8 34.5836 33.8807C34.5075 33.9614 34.4245 34.0536 34.4015 34.0859C34.3761 34.1158 34.3023 34.2449 34.2378 34.3718C34.1732 34.4986 34.0971 34.6761 34.0695 34.7637C34.0418 34.8513 34.0049 35.0242 33.9842 35.1441C33.9657 35.2663 33.9496 35.5107 33.9496 35.6974C33.9496 35.8934 33.9634 36.117 33.9842 36.2392C34.0049 36.3545 34.0418 36.5136 34.0672 36.5966C34.0925 36.6796 34.1294 36.7833 34.1502 36.8271C34.1686 36.8709 34.2032 36.9447 34.2239 36.9885C34.247 37.0323 34.2793 37.0946 34.2977 37.1268C34.3161 37.1591 34.36 37.226 34.3968 37.2767C34.4337 37.3274 34.5375 37.445 34.6274 37.5372C34.7173 37.6317 34.8649 37.7562 34.9525 37.8162C35.0401 37.8761 35.1507 37.9407 35.1945 37.9614C35.2383 37.9822 35.3213 38.0191 35.379 38.0444C35.4366 38.0698 35.575 38.1136 35.6902 38.1413C35.8724 38.1897 35.9554 38.1966 36.3473 38.1966C36.6516 38.1989 36.8338 38.1897 36.9121 38.1689C36.9744 38.1528 37.0735 38.1274 37.1312 38.1136C37.1888 38.0998 37.2972 38.0698 37.3732 38.0444C37.4493 38.0191 37.53 37.9891 37.5508 37.9776C37.59 37.9591 37.5923 37.8738 37.5923 35.3977H40.5664L40.5687 39.7205L40.3889 39.8381C40.2897 39.905 40.1352 39.9995 40.0476 40.0479C39.96 40.0986 39.8125 40.1724 39.7249 40.2139C39.6373 40.2554 39.5335 40.3038 39.4943 40.32C39.4551 40.3361 39.3767 40.3707 39.3145 40.3983C39.2545 40.4237 39.0793 40.4906 38.9226 40.5413C38.7681 40.5943 38.6113 40.645 38.5721 40.6543C38.5329 40.6658 38.4038 40.6981 38.2839 40.7303C38.164 40.7603 37.9865 40.8018 37.892 40.8226L37.875 40.8259C37.7813 40.8442 37.6524 40.8693 37.5807 40.8802C37.5047 40.894 37.3686 40.9148 37.281 40.9286C37.1934 40.9424 37.032 40.9632 36.9237 40.977C36.8153 40.9886 36.4741 41.0001 36.1629 41.0001C35.8516 41.0001 35.5104 40.9886 35.402 40.977C35.2937 40.9632 35.1392 40.9424 35.0562 40.9286C34.9732 40.9148 34.8533 40.894 34.7911 40.8825C34.7265 40.8687 34.5928 40.8387 34.4914 40.8156C34.3899 40.7903 34.2147 40.7419 34.0994 40.705C33.9842 40.6681 33.7997 40.5989 33.6844 40.5505C33.5692 40.5044 33.4193 40.4375 33.3501 40.403C33.281 40.3684 33.1611 40.3061 33.085 40.2623C33.0089 40.2208 32.8545 40.124 32.7392 40.0479C32.6239 39.9741 32.4671 39.8635 32.3887 39.8035C32.3104 39.7459 32.1121 39.5638 31.9484 39.3978C31.787 39.2341 31.6118 39.0473 31.5611 38.9828C31.5103 38.9205 31.3974 38.7591 31.3098 38.6254C31.2222 38.4917 31.0977 38.2796 31.0331 38.1528C30.9686 38.026 30.8879 37.8554 30.8556 37.7724C30.821 37.6894 30.7749 37.5649 30.7495 37.4957C30.7242 37.4265 30.6827 37.2974 30.6573 37.2075C30.6319 37.1199 30.5997 36.9885 30.5858 36.9193C30.572 36.8502 30.5513 36.7372 30.5374 36.6726C30.5259 36.6058 30.5028 36.4029 30.489 36.2231C30.4729 36.0271 30.4683 35.7136 30.4775 35.4553C30.4844 35.1994 30.5098 34.902 30.5374 34.7406C30.5605 34.5885 30.602 34.3856 30.625 34.2911C30.6504 34.1965 30.6988 34.0351 30.7334 33.9337C30.7657 33.8323 30.8325 33.6617 30.8786 33.5533C30.9224 33.4449 30.9824 33.3158 31.0101 33.2651C31.0377 33.2144 31.0907 33.1153 31.1299 33.0461C31.1668 32.9769 31.2521 32.8363 31.3213 32.7348C31.3882 32.6334 31.4827 32.5043 31.5265 32.4467C31.5726 32.389 31.6395 32.306 31.6786 32.2622C31.7155 32.2184 31.8262 32.1031 31.9207 32.0086C32.0153 31.9141 32.1305 31.8034 32.1743 31.7642C32.2181 31.725 32.3449 31.6259 32.4556 31.5406C32.5686 31.4553 32.7138 31.3515 32.7784 31.3123L32.7894 31.3055C32.8544 31.2652 32.9327 31.2166 32.9697 31.1948C33.0089 31.174 33.1588 31.0956 33.304 31.0219C33.4493 30.9481 33.6429 30.8582 33.7305 30.8236C33.8182 30.7867 33.9657 30.7337 34.0533 30.706C34.1409 30.676 34.3138 30.6276 34.4337 30.5953C34.5536 30.5654 34.7104 30.5285 34.7796 30.5146C34.8487 30.5008 34.9571 30.4778 35.0216 30.4662C35.0839 30.4547 35.236 30.4316 35.3559 30.4178Z" stroke="white" stroke-width="0.0207493"/>
<path d="M81.8695 30.4178C82.0102 30.404 82.1808 30.3901 82.2499 30.3855C82.3191 30.3809 82.6511 30.3809 82.9877 30.3855C83.3243 30.3878 83.6771 30.404 83.7716 30.4155C83.8661 30.4293 84.0321 30.4524 84.1405 30.4662C84.2488 30.4801 84.3779 30.4985 84.4286 30.51C84.4794 30.5216 84.5831 30.5423 84.6592 30.5561C84.7353 30.57 84.9059 30.6069 85.0396 30.6391C85.1733 30.6714 85.3601 30.7221 85.4546 30.7521C85.5491 30.7821 85.7105 30.8374 85.812 30.8743C85.9134 30.9135 86.0379 30.9619 86.0886 30.9827C86.1352 31.0017 86.2559 31.0598 86.3682 31.1138L86.3975 31.1279C86.5151 31.1878 86.6212 31.2478 86.6327 31.2593C86.6419 31.2732 86.6258 31.34 86.5958 31.4092C86.5682 31.4783 86.5197 31.5936 86.4921 31.6628C86.4644 31.7319 86.4229 31.8311 86.3999 31.8818C86.3768 31.9325 86.2892 32.1446 86.2039 32.3544C86.1186 32.5642 86.0264 32.7879 85.9964 32.8501C85.9687 32.9147 85.9364 32.9908 85.9272 33.023C85.919 33.0517 85.8871 33.126 85.8558 33.1988L85.8442 33.2259C85.8073 33.3043 85.7774 33.3735 85.7774 33.3804C85.7774 33.3873 85.7543 33.4403 85.729 33.5026C85.7013 33.5625 85.6644 33.6455 85.6483 33.687C85.6298 33.7262 85.6114 33.7608 85.6045 33.7608C85.5984 33.7608 85.5243 33.7268 85.431 33.684L85.3923 33.6663C85.2794 33.6132 85.0811 33.5256 84.9474 33.4726C84.8137 33.4173 84.6269 33.3458 84.5324 33.3158C84.4379 33.2836 84.2557 33.2305 84.1289 33.1982C84.0021 33.166 83.8154 33.1222 83.7139 33.1037C83.6125 33.083 83.3889 33.0507 83.2183 33.0323C83.0476 33.0138 82.8402 33 82.7572 33C82.6742 33 82.5128 33.0115 82.3998 33.0253C82.2868 33.0369 82.1508 33.0599 82.1001 33.0738C82.0494 33.0876 81.9779 33.1083 81.9387 33.1199C81.9045 33.1319 81.851 33.1528 81.8103 33.1686L81.7935 33.1752C81.7543 33.1936 81.6828 33.2421 81.6367 33.2836C81.5906 33.3227 81.5398 33.3827 81.5237 33.415C81.5076 33.4472 81.4891 33.5118 81.4799 33.5602C81.473 33.6063 81.4753 33.687 81.4891 33.7377C81.503 33.7954 81.5445 33.8599 81.5975 33.9107C81.6459 33.9545 81.7266 34.0121 81.7773 34.0351C81.828 34.0605 81.911 34.0951 81.9618 34.1135C82.0125 34.132 82.137 34.1689 82.2384 34.1942C82.3399 34.2219 82.5105 34.2634 82.6188 34.2888C82.7272 34.3141 82.8655 34.3464 82.9301 34.3602C82.9923 34.3741 83.2321 34.4202 83.4603 34.4663C83.6886 34.5101 84.009 34.5839 84.175 34.6277C84.341 34.6692 84.5001 34.7107 84.5324 34.7199C84.5647 34.7268 84.7191 34.7752 84.8782 34.8259C85.0373 34.8767 85.2125 34.9389 85.2702 34.9643C85.3278 34.9919 85.4315 35.0403 85.5007 35.0749C85.5699 35.1095 85.669 35.1602 85.7197 35.1879C85.7705 35.2156 85.8903 35.2986 85.9872 35.37C86.084 35.4415 86.2246 35.5568 86.2984 35.6259C86.3745 35.6951 86.4967 35.8265 86.5728 35.9187C86.6489 36.011 86.748 36.1608 86.7941 36.2554C86.8425 36.3476 86.9001 36.4813 86.9255 36.5505C86.9509 36.6196 86.9831 36.7234 86.997 36.781C87.0085 36.8386 87.0339 36.9424 87.0477 37.0116C87.0638 37.0853 87.0777 37.3113 87.0777 37.5534C87.0777 37.8023 87.0661 38.0191 87.0477 38.0951C87.0339 38.1643 87.0085 38.2681 86.9947 38.3257C86.9831 38.3833 86.9509 38.4917 86.9255 38.5678C86.9001 38.6439 86.8379 38.7891 86.7895 38.8905C86.7411 38.992 86.6742 39.1211 86.6419 39.1787C86.6073 39.2364 86.5244 39.3563 86.4575 39.4439C86.3883 39.5315 86.2684 39.6675 86.1877 39.7436C86.1071 39.8197 86.0079 39.9096 85.9664 39.9465C85.9272 39.9811 85.8096 40.0664 85.7082 40.1355C85.6068 40.2047 85.5145 40.2623 85.5007 40.2623C85.4869 40.2623 85.4753 40.2692 85.4707 40.2808C85.4684 40.29 85.3923 40.3361 85.3047 40.3822C85.2171 40.4283 85.0765 40.4929 84.9935 40.5275C84.9105 40.562 84.8137 40.6035 84.7745 40.6197C84.7353 40.6381 84.6269 40.6773 84.5324 40.7096C84.4379 40.7396 84.2857 40.7834 84.1981 40.8041C84.1105 40.8249 83.9629 40.8548 83.8753 40.871C83.7877 40.8894 83.6402 40.9148 83.5526 40.9286C83.4649 40.9424 83.2966 40.9632 83.1837 40.977C83.0707 40.9886 82.6834 41.0001 82.3237 41.0001C81.9664 41.0001 81.5675 40.9886 81.4361 40.977C81.307 40.9632 81.1179 40.9424 81.0165 40.9286C80.9151 40.9171 80.7744 40.8963 80.7053 40.8848C80.6361 40.8733 80.4793 40.8456 80.3594 40.8272C80.2395 40.8064 80.0528 40.7695 79.9444 40.7442C79.8361 40.7188 79.7185 40.6911 79.6793 40.6796C79.6401 40.6704 79.5686 40.6496 79.5179 40.6335C79.4672 40.6197 79.3381 40.5828 79.2297 40.5482C79.1214 40.5159 78.9508 40.4583 78.8493 40.4191C78.7479 40.3799 78.598 40.3177 78.515 40.2808C78.432 40.2439 78.2891 40.1747 78.1969 40.1286C78.1046 40.0825 78.0009 40.0226 77.9041 39.9465L78.0055 39.7182L78.0055 39.7182C78.0609 39.5937 78.1346 39.4277 78.1715 39.3516C78.2061 39.2756 78.2545 39.1672 78.2799 39.1096C78.3052 39.0519 78.3513 38.9436 78.3836 38.8675C78.4159 38.7914 78.4781 38.6485 78.5242 38.5516C78.5704 38.4525 78.6072 38.3672 78.6072 38.3603C78.6072 38.3534 78.6372 38.2842 78.6741 38.2058L78.6889 38.1734C78.7241 38.0965 78.7675 38.0016 78.7917 37.9453C78.8193 37.883 78.8655 37.7793 78.8954 37.7147C78.9231 37.6525 78.9531 37.5787 78.96 37.5534C78.9669 37.528 78.9876 37.4957 79.0038 37.4796C79.0268 37.4588 79.0822 37.4773 79.2643 37.5695C79.3911 37.634 79.594 37.7309 79.7139 37.7862C79.8338 37.8392 80.0782 37.9315 80.2557 37.9891C80.4332 38.0467 80.6084 38.1044 80.6476 38.1159C80.6868 38.1251 80.7583 38.1459 80.809 38.1597C80.8597 38.1735 80.9427 38.1943 80.9934 38.2081C81.0442 38.2219 81.1433 38.2427 81.2125 38.2565C81.2816 38.2681 81.4522 38.2957 81.5929 38.3188C81.7773 38.3464 81.994 38.358 82.3883 38.358C82.8309 38.358 82.9647 38.3511 83.1145 38.3165C83.216 38.2934 83.3451 38.2519 83.4004 38.2243C83.4557 38.1989 83.5318 38.1413 83.5687 38.1021C83.6033 38.0606 83.6425 38.0006 83.6563 37.9683C83.6701 37.9361 83.6794 37.8761 83.6794 37.8369C83.6794 37.7954 83.6586 37.7193 83.6355 37.6686C83.6125 37.6179 83.5641 37.551 83.5272 37.5188C83.4903 37.4865 83.4027 37.4335 83.3335 37.3989C83.2644 37.3643 83.1122 37.3113 82.9992 37.2767C82.8863 37.2421 82.7134 37.196 82.6188 37.1706C82.5243 37.1453 82.4044 37.1176 82.3537 37.1061C82.303 37.0946 82.1531 37.0646 82.0194 37.0369C81.8857 37.0093 81.6897 36.9654 81.5813 36.9401C81.473 36.9147 81.3393 36.8825 81.2816 36.8686C81.224 36.8548 81.0119 36.7971 80.809 36.7418C80.6061 36.6865 80.3663 36.615 80.2787 36.585C80.1911 36.5551 80.0551 36.5067 79.979 36.4813C79.9029 36.4536 79.7623 36.3937 79.6678 36.3453C79.5732 36.2992 79.4003 36.1977 79.2874 36.1239C79.1652 36.0432 78.9738 35.8796 78.824 35.732C78.681 35.5937 78.5219 35.4115 78.4666 35.3285C78.4136 35.2455 78.3467 35.128 78.319 35.0634C78.2914 35.0012 78.2476 34.8859 78.2199 34.8098C78.1946 34.7337 78.1623 34.6207 78.1484 34.5562C78.1346 34.4939 78.1139 34.3925 78.1 34.3326C78.0885 34.2703 78.077 34.049 78.077 33.8369C78.077 33.6017 78.0908 33.3781 78.1116 33.2651C78.13 33.1637 78.1646 33.0138 78.1899 32.9308C78.213 32.8478 78.2545 32.7302 78.2799 32.6657C78.3052 32.6034 78.3582 32.4835 78.3997 32.4005C78.4412 32.3175 78.5404 32.1585 78.6211 32.0432C78.7018 31.9302 78.8217 31.7781 78.8885 31.7089C78.9554 31.6397 79.0568 31.5406 79.1145 31.4876C79.1721 31.4368 79.3012 31.3377 79.4026 31.2662C79.5041 31.1948 79.6286 31.1141 79.6793 31.0841C79.73 31.0564 79.8545 30.9919 79.956 30.9412C80.0574 30.8927 80.2188 30.819 80.3133 30.7821C80.4078 30.7429 80.5485 30.6945 80.6246 30.6714C80.7006 30.6461 80.8413 30.6069 80.9358 30.5838C81.0303 30.5584 81.1756 30.5262 81.2586 30.5123C81.3416 30.4962 81.4545 30.4754 81.5122 30.4639C81.5698 30.4524 81.7289 30.4316 81.8695 30.4178Z" stroke="white" stroke-width="0.0207493"/>
</g>
<path id="Vector_10" d="M15.6809 35.6057C15.6048 35.3844 15.5034 35.1008 15.4549 34.9786L15.3627 34.7527H24.511V40.6778H20.534C18.346 40.6778 16.5431 40.6824 16.527 40.6894C16.5062 40.6986 16.5016 40.6617 16.5086 40.5349C16.5132 40.4427 16.5039 40.1383 16.4878 39.8594C16.474 39.5804 16.4463 39.2023 16.4279 39.0179C16.4094 38.8334 16.3725 38.5429 16.3472 38.3723C16.3218 38.2017 16.2642 37.8743 16.2204 37.6461C16.1743 37.4179 16.0982 37.0651 16.0475 36.8622C15.9967 36.6593 15.923 36.385 15.8838 36.2513C15.8469 36.1175 15.7547 35.8271 15.6809 35.6057Z" fill="#623A60" stroke="white" stroke-width="0.0207493"/>
<path id="Vector_11" fill-rule="evenodd" clip-rule="evenodd" d="M30.8602 13.2191H34.2492L34.2608 16.8687L34.5582 16.5367C34.7219 16.3546 34.9501 16.101 35.0654 15.9742C35.1807 15.8497 35.3374 15.6768 35.4135 15.5938C35.4896 15.5108 35.6302 15.3563 35.7248 15.2503C35.8193 15.1442 35.9161 15.0358 35.9392 15.0082C35.9622 14.9805 36.0729 14.8606 36.1836 14.7407C36.2942 14.6209 36.4256 14.4756 36.4764 14.418C36.5248 14.3603 36.5916 14.2889 36.6239 14.2566C36.6562 14.2243 36.7231 14.1528 36.7715 14.0952C36.8199 14.0376 36.9144 13.9338 36.979 13.8646C37.0435 13.7955 37.1427 13.6848 37.198 13.6226C37.2556 13.558 37.3617 13.4427 37.5692 13.2191H39.4251C40.6401 13.2191 41.2857 13.226 41.2926 13.2422C41.2995 13.2537 41.2649 13.3044 41.2165 13.3528C41.1704 13.4012 41.0574 13.5211 40.9698 13.6226C40.8822 13.724 40.8038 13.8116 40.7969 13.8185C40.79 13.8255 40.6655 13.9592 40.5202 14.1183C40.375 14.2773 40.2505 14.411 40.2436 14.418C40.2366 14.4249 40.1859 14.4802 40.1306 14.5448C40.073 14.607 39.9392 14.7569 39.8309 14.8768C39.7225 14.9966 39.5704 15.1626 39.492 15.2456C39.4159 15.3286 39.3075 15.4485 39.2499 15.5131C39.1946 15.5753 39.1185 15.6606 39.0793 15.7021C39.0401 15.7413 38.9479 15.8451 38.8718 15.9304C38.7957 16.018 38.6712 16.1563 38.5928 16.2393C38.5167 16.3223 38.4084 16.4399 38.3507 16.5044C38.2954 16.5667 38.2239 16.6451 38.1917 16.6774C38.1594 16.7096 38.0879 16.788 38.0326 16.8503C37.9749 16.9148 37.8412 17.0647 37.7329 17.1846C37.6245 17.3045 37.4747 17.4682 37.2695 17.6918L37.6914 18.2543C37.9219 18.5656 38.1294 18.8422 38.1502 18.8722C38.1732 18.9022 38.3761 19.1742 38.6044 19.4786C38.8326 19.7829 39.0286 20.0434 39.0378 20.0549C39.0493 20.0665 39.2476 20.3316 39.4781 20.6428C39.711 20.9541 39.9139 21.2238 39.9277 21.2423C39.9438 21.2607 40.096 21.4636 40.2666 21.6918C40.4372 21.9201 40.5825 22.1114 40.5894 22.1184C40.5963 22.1253 40.6424 22.1875 40.7807 22.3835L40.8222 22.2913C40.8453 22.2406 40.8637 22.1921 40.8661 22.1806C40.8661 22.1714 40.9076 22.0769 40.9583 21.9685C41.009 21.8601 41.0505 21.7679 41.0505 21.761C41.0505 21.7541 41.0782 21.6895 41.1104 21.6158C41.1427 21.5443 41.1819 21.4521 41.2004 21.4152C41.2165 21.3783 41.2511 21.2976 41.2787 21.2353C41.3064 21.1754 41.3479 21.0832 41.371 21.0279C41.394 20.9748 41.4424 20.8642 41.477 20.7812C41.5116 20.6982 41.5692 20.5644 41.6084 20.4814C41.6453 20.3985 41.703 20.2693 41.7352 20.1933C41.7675 20.1172 41.8113 20.0134 41.8344 19.9627C41.8574 19.912 41.9266 19.7506 41.9911 19.6054C42.0534 19.4601 42.1387 19.2688 42.1779 19.1788C42.2171 19.0889 42.2609 18.999 42.2724 18.976C42.2862 18.9552 42.2955 18.9252 42.2955 18.9137C42.2955 18.9022 42.3254 18.8261 42.3623 18.7454C42.3992 18.667 42.4522 18.5494 42.4799 18.4872C42.5076 18.4226 42.5445 18.3396 42.5606 18.3027C42.579 18.2659 42.6182 18.1736 42.6505 18.0999C42.6828 18.0284 42.7105 17.9638 42.7105 17.9569C42.7105 17.95 42.7473 17.8647 42.7935 17.7656C42.8396 17.6687 42.9018 17.5258 42.9341 17.4497C42.9664 17.3736 43.0125 17.2653 43.0378 17.2076C43.0632 17.15 43.107 17.0509 43.137 16.9886C43.1646 16.9241 43.2108 16.8203 43.2361 16.7581C43.2615 16.6935 43.3214 16.5598 43.3675 16.4583C43.4136 16.3569 43.4597 16.2531 43.4713 16.2278C43.4828 16.2024 43.5243 16.1033 43.5658 16.0088C43.605 15.9142 43.658 15.7897 43.6834 15.7321C43.7087 15.6745 43.7433 15.5961 43.7595 15.5592C43.7779 15.5223 43.8125 15.4416 43.8379 15.3794C43.8655 15.3194 43.9047 15.2272 43.9301 15.1719C43.9531 15.1188 43.9946 15.0289 44.02 14.9713C44.0453 14.9136 44.0938 14.8007 44.1283 14.7177C44.1629 14.6347 44.216 14.5102 44.2482 14.441C44.2805 14.3719 44.3543 14.2059 44.4096 14.0721C44.4673 13.9384 44.5341 13.7886 44.5572 13.7378C44.5802 13.6871 44.6379 13.5534 44.7762 13.2306L48.1745 13.2191L48.2345 13.3505C48.2667 13.4243 48.3543 13.6249 48.4281 13.7955C48.5019 13.9661 48.5941 14.1759 48.6333 14.2612C48.6725 14.3488 48.7048 14.4226 48.7048 14.4295C48.7048 14.4364 48.7347 14.5056 48.7716 14.584C48.8085 14.6647 48.8869 14.8445 48.9469 14.9828C49.0068 15.1211 49.076 15.2825 49.1013 15.3402C49.1267 15.3978 49.1774 15.5085 49.2143 15.5869C49.2512 15.6676 49.2812 15.7367 49.2812 15.7436C49.2812 15.7505 49.3019 15.8013 49.3273 15.8589C49.3526 15.9165 49.3964 16.0111 49.4218 16.071C49.4495 16.1333 49.5486 16.3569 49.6431 16.5736C49.7376 16.7903 49.8345 17.0094 49.8575 17.0624C49.8829 17.1177 49.9036 17.1661 49.9036 17.173C49.9036 17.18 49.9336 17.2491 49.9705 17.3275C50.0074 17.4082 50.065 17.5327 50.0973 17.6042C50.1296 17.678 50.1572 17.7425 50.1572 17.7494C50.1572 17.7563 50.1849 17.8209 50.2172 17.8924C50.2495 17.9661 50.2864 18.0468 50.2979 18.0722C50.3071 18.0976 50.3578 18.2082 50.4109 18.3189C50.4616 18.4319 50.5031 18.5264 50.5031 18.5333C50.5031 18.5402 50.5261 18.5932 50.5515 18.6532C50.5792 18.7154 50.6183 18.8053 50.6414 18.8561C50.6645 18.9068 50.7152 19.0267 50.7567 19.1212C50.7959 19.2157 50.8512 19.3402 50.8766 19.3979C50.9019 19.4555 50.948 19.5523 50.9757 19.6169C51.0057 19.6791 51.0564 19.799 51.091 19.882C51.1256 19.965 51.174 20.078 51.1993 20.1356C51.2247 20.1933 51.2708 20.2947 51.3008 20.3593C51.3307 20.4261 51.3561 20.4861 51.3561 20.493C51.3561 20.4999 51.393 20.5829 51.4368 20.6774C51.4806 20.7719 51.5175 20.8549 51.5175 20.8619C51.5175 20.8688 51.5544 20.9518 51.5982 21.0463C51.642 21.1408 51.6789 21.2238 51.6789 21.2307C51.6789 21.2377 51.7042 21.2999 51.7365 21.3691C51.7688 21.4382 51.8218 21.5558 51.8541 21.6273C51.8864 21.7011 51.9348 21.8117 51.9602 21.8763C51.9855 21.9385 52.0293 22.0423 52.0593 22.1068C52.087 22.1691 52.1377 22.2797 52.17 22.3489C52.2022 22.4181 52.2553 22.5426 52.2898 22.6256C52.3244 22.7086 52.3728 22.8215 52.3982 22.8792C52.4236 22.9368 52.4628 23.0244 52.4858 23.0751C52.5089 23.1259 52.5434 23.2089 52.5642 23.2596C52.5849 23.3103 52.6011 23.3587 52.6011 23.3679C52.6011 23.3795 51.8057 23.3864 49.0621 23.3887L49.0345 23.3357C49.0206 23.3057 48.9884 23.2342 48.9607 23.172C48.933 23.112 48.9123 23.0567 48.9123 23.0452C48.9123 23.036 48.85 22.8676 48.7716 22.6717C48.6956 22.4757 48.6056 22.2429 48.5734 22.1529C48.5411 22.063 48.5019 21.9593 48.4858 21.9224C48.4696 21.8855 48.4373 21.8002 48.3682 21.6227L44.5433 21.6088L44.4234 21.9155C44.3566 22.0838 44.2275 22.4135 44.1376 22.6486C44.0477 22.8838 43.9577 23.1166 43.9393 23.1674C43.9232 23.2181 43.8955 23.2873 43.8517 23.3864H37.5231L37.4885 23.3288C37.47 23.2965 37.4378 23.2527 37.4216 23.2296C37.4032 23.2089 37.2856 23.0544 37.1634 22.8907C37.0389 22.727 36.8867 22.5241 36.8268 22.4411C36.7646 22.3581 36.7023 22.2751 36.6862 22.2567C36.67 22.2382 36.5663 22.0999 36.451 21.9478C36.3357 21.7979 36.1905 21.6042 36.1282 21.5189C36.0637 21.4313 35.7916 21.067 35.5196 20.7074C35.2475 20.35 35.0216 20.0503 35.017 20.0434C35.0101 20.0365 34.9916 20.0526 34.9732 20.078C34.9547 20.1033 34.8994 20.1656 34.8533 20.2163C34.8049 20.267 34.685 20.4008 34.5835 20.516C34.4821 20.629 34.3645 20.7581 34.2492 20.8849V23.3864H30.8602L30.8602 13.2191ZM46.3301 16.954C46.2909 17.0624 46.2379 17.1915 46.2148 17.2422C46.1941 17.2929 46.1526 17.4013 46.1226 17.4843C46.0949 17.5673 46.0581 17.6664 46.0419 17.7033C46.0258 17.7402 45.9336 17.9754 45.8367 18.2221C45.7399 18.4687 45.6615 18.6785 45.6615 18.6878C45.6615 18.6993 45.6408 18.7546 45.6131 18.8146C45.5854 18.8768 45.5555 18.946 45.5462 18.9713C45.5347 18.9967 45.5209 19.0405 45.514 19.0682L45.5001 19.1212H47.4137C47.3215 18.8791 47.2731 18.7662 47.25 18.7108C47.2269 18.6578 47.2062 18.6025 47.2062 18.5909C47.2062 18.5794 47.1878 18.5241 47.1624 18.4687C47.1393 18.4157 47.1048 18.3304 47.084 18.2797C47.0633 18.229 46.9687 17.98 46.8719 17.7264C46.7728 17.4728 46.639 17.1246 46.5722 16.954C46.4615 16.6751 46.4477 16.6497 46.4269 16.7004C46.4154 16.7327 46.3716 16.8457 46.3301 16.954ZM53.1313 13.2191H54.5608C55.9003 13.2191 55.9902 13.2214 56.0063 13.2583C56.0155 13.2814 56.0663 13.369 56.1216 13.4543C56.1769 13.5419 56.2207 13.6226 56.2207 13.6341C56.2207 13.6456 56.2299 13.6571 56.2438 13.6571C56.2576 13.6571 56.2668 13.6687 56.2668 13.6802C56.2668 13.6917 56.3037 13.7609 56.3475 13.8301C56.3913 13.8992 56.4282 13.9684 56.4282 13.9799C56.4282 13.9914 56.4374 14.0053 56.4467 14.0076C56.4582 14.0122 56.5435 14.1436 56.6403 14.3027C56.7349 14.4618 56.8847 14.7062 56.97 14.8445C57.0553 14.9828 57.1429 15.1304 57.166 15.1673C57.1867 15.2041 57.2513 15.3079 57.3066 15.3978C57.362 15.4854 57.4173 15.5753 57.4311 15.5984C57.445 15.6214 57.5164 15.739 57.5925 15.8635C57.6686 15.988 57.8646 16.3085 58.0282 16.5736C58.1896 16.8387 58.3441 17.0947 58.3695 17.1385C58.3971 17.1823 58.4525 17.2745 58.494 17.339C58.5378 17.4059 58.5723 17.4658 58.5723 17.4728C58.5723 17.4797 58.5839 17.4981 58.5977 17.512C58.6115 17.5281 58.7614 17.7702 58.9297 18.0491C59.098 18.3281 59.2456 18.5587 59.2571 18.5633C59.2663 18.5679 59.3078 18.5195 59.347 18.4595C59.3862 18.3996 59.4507 18.2912 59.4945 18.2221C59.536 18.1529 59.5868 18.063 59.6098 18.0261C59.6306 17.9892 59.7505 17.7863 59.875 17.5765C59.9995 17.3667 60.2 17.0301 60.3222 16.8272C60.4444 16.6243 60.5551 16.4376 60.5689 16.4122C60.5827 16.3869 60.6888 16.2047 60.8087 16.0088C60.9263 15.8128 61.0438 15.6145 61.0669 15.5707C61.0923 15.5269 61.1222 15.4785 61.1315 15.467C61.1407 15.4554 61.1707 15.407 61.1937 15.3632C61.2191 15.3194 61.3874 15.0335 61.5695 14.7292C61.7493 14.4249 61.9222 14.1367 61.9522 14.0883C61.9822 14.0422 62.0076 13.9914 62.0076 13.9799C62.0076 13.9684 62.0168 13.9569 62.0306 13.9569C62.0444 13.9569 62.0537 13.9453 62.0537 13.9338C62.0537 13.9223 62.1113 13.8139 62.1828 13.6963C62.2542 13.5811 62.3465 13.4266 62.4594 13.2306L65.2929 13.2191L65.3113 14.2612C65.3206 14.8353 65.3275 17.1246 65.3275 23.3864H62.192L62.1897 22.8607C62.1874 22.5725 62.1782 21.5466 62.1574 18.8192L61.8738 19.2987C61.7194 19.5616 61.5741 19.8105 61.5511 19.8474C61.5303 19.8843 61.5049 19.9189 61.4934 19.9212C61.4842 19.9258 61.4773 19.9397 61.4773 19.9512C61.4773 19.9627 61.4058 20.0918 61.3205 20.2325C61.2352 20.3754 61.0877 20.6221 60.9954 20.7812C60.9009 20.9402 60.7995 21.1085 60.7718 21.1547C60.7418 21.2031 60.7165 21.2538 60.7165 21.2653C60.7165 21.2768 60.7072 21.2884 60.6934 21.2884C60.6796 21.2884 60.6704 21.2953 60.6704 21.3045C60.6704 21.316 60.5758 21.4843 60.4606 21.6803C60.343 21.8763 60.1885 22.1368 59.9879 22.4757L58.4686 22.4895L58.019 21.7702C57.7723 21.3737 57.5671 21.0371 57.5625 21.0186C57.5602 21.0025 57.5487 20.9887 57.5349 20.9887C57.521 20.9887 57.5118 20.9771 57.5118 20.9656C57.5118 20.9541 57.4934 20.9149 57.468 20.878C57.445 20.8434 57.385 20.7489 57.3343 20.6659C57.2836 20.5829 57.1752 20.4077 57.0922 20.274C57.0092 20.1402 56.8455 19.8751 56.7279 19.686C56.6104 19.4947 56.4582 19.2526 56.2645 18.9483L56.2668 23.3864H53.1313V13.2191ZM66.9667 13.2168L69.784 13.226C71.6054 13.2329 72.659 13.2445 72.7627 13.2606C72.8504 13.2744 72.9864 13.2952 73.0625 13.309C73.1385 13.3229 73.2953 13.3528 73.4083 13.3782C73.5213 13.4035 73.7195 13.4566 73.8463 13.4958C73.9731 13.5373 74.123 13.5903 74.1806 13.6156C74.2383 13.641 74.3835 13.7102 74.5034 13.7678C74.6233 13.8231 74.7247 13.8785 74.727 13.89C74.7316 13.9015 74.7432 13.9108 74.757 13.9108C74.7708 13.9108 74.84 13.9499 74.9115 13.9961C74.9852 14.0445 75.119 14.1413 75.2066 14.2128C75.2942 14.2842 75.4417 14.4203 75.534 14.5125C75.6262 14.607 75.7553 14.7615 75.8221 14.856C75.889 14.9505 75.972 15.0704 76.0043 15.1211C76.0366 15.1719 76.0965 15.2848 76.1403 15.3748C76.1818 15.4647 76.2464 15.6191 76.2832 15.7206C76.3201 15.822 76.3639 15.9719 76.3847 16.0549C76.4031 16.1379 76.4285 16.2462 76.44 16.297C76.4516 16.3477 76.4723 16.5344 76.4884 16.7119C76.5069 16.9563 76.5069 17.12 76.4884 17.3805C76.4723 17.5696 76.4516 17.7725 76.4377 17.8301C76.4239 17.8878 76.4031 17.98 76.3893 18.0376C76.3755 18.0952 76.3455 18.2036 76.3201 18.2797C76.2948 18.3558 76.2671 18.4388 76.2579 18.4641C76.2487 18.4895 76.191 18.614 76.1311 18.7408C76.0688 18.8676 75.9559 19.0636 75.8752 19.1788C75.7945 19.2941 75.6746 19.4486 75.6054 19.5224C75.5386 19.5984 75.4095 19.7229 75.3195 19.799C75.2296 19.8774 75.1351 19.9558 75.1121 19.9742C75.089 19.995 74.9945 20.0572 74.9069 20.1149C74.8193 20.1725 74.6325 20.2763 74.4919 20.3477C74.3512 20.4169 74.1599 20.5022 74.0654 20.5391C73.9708 20.5737 73.7979 20.6267 73.6849 20.659C73.572 20.6912 73.3576 20.7397 73.2123 20.7696C73.0671 20.7973 72.8596 20.8342 72.7512 20.8503C72.6267 20.8688 72.1702 20.8826 70.4227 20.8964V23.3864H66.9644L66.9667 13.2168ZM70.4227 18.2221C71.7299 18.2221 71.9489 18.2128 72.0711 18.1875C72.161 18.169 72.2809 18.1367 72.3362 18.1183C72.3939 18.0976 72.4884 18.0514 72.5437 18.0146C72.6014 17.9777 72.6936 17.9016 72.7466 17.8416C72.7996 17.784 72.8688 17.6872 72.8988 17.6272C72.9287 17.5673 72.9679 17.4658 72.9841 17.4036C73.0048 17.3321 73.0163 17.1869 73.0163 17.0347C73.014 16.8295 73.0048 16.7511 72.961 16.6313C72.931 16.5483 72.8872 16.4491 72.8596 16.4122C72.8342 16.373 72.7766 16.3016 72.7305 16.2531C72.6867 16.2047 72.606 16.1356 72.5552 16.101C72.5045 16.0641 72.3962 16.0134 72.3132 15.9857C72.2325 15.9557 72.0711 15.9189 71.9558 15.9027C71.8175 15.8797 71.5316 15.8704 71.0866 15.8704H70.4227V18.2221ZM77.3622 13.2191H79.0798C80.5876 13.2191 80.7997 13.2214 80.809 13.2537C80.8159 13.2721 80.8205 14.6116 80.8205 16.2324C80.8205 18.1898 80.8297 19.2249 80.8458 19.3172C80.8597 19.3932 80.8804 19.5108 80.8943 19.5823C80.9081 19.6515 80.9404 19.7714 80.9634 19.8474C80.9888 19.9235 81.0418 20.048 81.081 20.1241C81.1248 20.2048 81.2263 20.3339 81.3323 20.4399C81.4314 20.5391 81.5283 20.6198 81.5467 20.6198C81.5675 20.6198 81.5813 20.629 81.5813 20.6428C81.5813 20.6544 81.5998 20.6705 81.6228 20.6751C81.6459 20.6797 81.7104 20.7028 81.7657 20.7235C81.8234 20.7443 81.9479 20.7742 82.0424 20.7927C82.1392 20.8111 82.273 20.8273 82.3421 20.8273C82.4136 20.8273 82.5519 20.8111 82.6534 20.795C82.7548 20.7766 82.8701 20.7489 82.907 20.7327C82.9462 20.7166 83.0084 20.6913 83.0453 20.6751C83.0845 20.659 83.1675 20.6083 83.2297 20.5598C83.2943 20.5137 83.375 20.4423 83.4119 20.4031C83.4465 20.3639 83.5041 20.2901 83.541 20.2394C83.5779 20.1886 83.6286 20.0941 83.6563 20.0319C83.6839 19.9673 83.7208 19.8751 83.7393 19.8244C83.7554 19.7737 83.7923 19.6215 83.8753 19.248L83.8822 13.2191H87.2759V16.1932C87.2759 18.063 87.269 19.2549 87.2528 19.4025C87.239 19.5316 87.2183 19.7114 87.2044 19.8013C87.1929 19.8889 87.1722 20.0042 87.1606 20.0549C87.1514 20.1057 87.1237 20.2232 87.103 20.3201C87.0822 20.4146 87.0338 20.5852 86.9946 20.7005C86.9554 20.8134 86.884 21.0002 86.8356 21.1155C86.7848 21.2284 86.6926 21.4106 86.6281 21.5189C86.5635 21.625 86.4667 21.7702 86.416 21.8417C86.3629 21.9109 86.3007 21.9939 86.2753 22.0261C86.25 22.0561 86.1301 22.1829 86.0102 22.3028C85.888 22.425 85.745 22.5587 85.6897 22.6025C85.6344 22.6463 85.4984 22.7432 85.39 22.8169C85.2793 22.8907 85.0649 23.0129 84.9128 23.0867C84.7606 23.1604 84.5116 23.2619 84.3594 23.3126C84.2073 23.3633 84.0113 23.421 83.9214 23.4417C83.8338 23.4625 83.7185 23.4878 83.6678 23.4994C83.6171 23.5109 83.5041 23.5316 83.4142 23.5455C83.3266 23.5593 83.1283 23.5801 82.9761 23.5916C82.824 23.6054 82.5289 23.6146 82.3191 23.6146C82.1116 23.6146 81.8142 23.6054 81.662 23.5916C81.5098 23.5801 81.2885 23.5547 81.1663 23.5362C81.0464 23.5155 80.8435 23.474 80.7167 23.4417C80.5899 23.4094 80.4516 23.3726 80.4055 23.3587C80.3617 23.3449 80.228 23.2965 80.1058 23.2527C79.9859 23.2112 79.783 23.1236 79.6562 23.059C79.5294 22.9945 79.4118 22.9276 79.3911 22.9115C79.3726 22.893 79.3496 22.8792 79.3404 22.8792C79.3311 22.8792 79.2989 22.8607 79.2689 22.8377C79.2366 22.8146 79.1905 22.7823 79.1605 22.7639C79.1329 22.7432 79.0452 22.6786 78.9692 22.6163C78.8908 22.5541 78.7594 22.4411 78.6764 22.3627C78.5957 22.2821 78.4919 22.176 78.4458 22.1253C78.402 22.0746 78.3421 22.0054 78.3144 21.9708C78.2867 21.9385 78.2037 21.8233 78.1323 21.7195C78.0608 21.6158 77.9386 21.3944 77.8579 21.2307C77.7795 21.0647 77.685 20.848 77.6504 20.7466C77.6181 20.6451 77.5651 20.4676 77.5351 20.3546C77.5075 20.2394 77.466 20.0365 77.4475 19.9051C77.4268 19.7714 77.3991 19.5685 77.3876 19.4555C77.3714 19.3241 77.3622 18.1414 77.3622 16.2324V13.2191ZM42.0234 30.6003L44.7946 30.6095C47.2385 30.6165 47.5981 30.6234 47.8402 30.658C47.9924 30.6787 48.1699 30.7064 48.2321 30.7202C48.2967 30.7317 48.3958 30.7548 48.4512 30.7663C48.5088 30.7801 48.5964 30.8009 48.6471 30.8147C48.6979 30.8286 48.85 30.877 48.9814 30.9208C49.1152 30.9646 49.3342 31.0522 49.4656 31.1168C49.5993 31.179 49.7768 31.2735 49.8575 31.3242C49.9405 31.3773 50.1019 31.4879 50.2149 31.5732C50.3302 31.6585 50.4915 31.7992 50.5745 31.8868C50.6575 31.9721 50.7843 32.122 50.8535 32.2165C50.9227 32.311 51.0103 32.4424 51.0495 32.5047C51.0864 32.5692 51.1601 32.7076 51.2132 32.8159C51.2639 32.9243 51.3284 33.0741 51.3538 33.1502C51.3792 33.2263 51.4161 33.3554 51.4345 33.4384C51.4529 33.5214 51.4783 33.6459 51.4921 33.7151C51.506 33.7842 51.529 33.971 51.5452 34.1301C51.5659 34.3583 51.5659 34.4874 51.5429 34.7525C51.5267 34.937 51.506 35.1283 51.4944 35.1791C51.4829 35.2298 51.4529 35.3612 51.4276 35.4742C51.4022 35.5848 51.3492 35.7554 51.31 35.8546C51.2708 35.9514 51.1947 36.1105 51.144 36.205C51.0933 36.2995 50.9965 36.4563 50.9319 36.5508C50.8673 36.6454 50.706 36.8321 50.5722 36.9658C50.4247 37.1157 50.2379 37.2725 50.0881 37.3716C49.9567 37.4615 49.8022 37.5583 49.7492 37.586C49.6846 37.6183 49.6569 37.6436 49.6662 37.6644C49.6754 37.6782 49.7123 37.7336 49.7492 37.7843C49.7838 37.835 49.8714 37.9641 49.9428 38.0725C50.0143 38.1808 50.0789 38.273 50.0858 38.28C50.095 38.2869 50.1734 38.3998 50.261 38.5336C50.3509 38.6673 50.6391 39.0915 50.9042 39.4788C51.1671 39.8661 51.3953 40.2028 51.4091 40.2281C51.423 40.2535 51.446 40.2858 51.4599 40.2996C51.4737 40.3134 51.5406 40.4079 51.6097 40.5117C51.6812 40.6177 51.7388 40.6984 51.7411 40.6961C51.7411 40.6915 51.8149 40.5232 51.9048 40.3203C51.9947 40.1174 52.0939 39.8892 52.1262 39.8131C52.1561 39.737 52.2138 39.6079 52.253 39.5249C52.2898 39.4419 52.3498 39.3082 52.3844 39.2252C52.4166 39.1422 52.4674 39.0293 52.4927 38.9716C52.5181 38.914 52.5619 38.8125 52.5942 38.748C52.6241 38.6811 52.6472 38.6212 52.6472 38.6143C52.6472 38.6073 52.6795 38.5336 52.721 38.4483C52.7602 38.3607 52.8224 38.2269 52.8593 38.1485C52.8939 38.0679 52.9239 37.9987 52.9239 37.9918C52.9239 37.9849 53.0045 37.8004 53.0991 37.5837C53.1959 37.3647 53.295 37.141 53.3181 37.088C53.3435 37.0327 53.3619 36.9843 53.3619 36.9773C53.3619 36.9704 53.3988 36.8897 53.4426 36.7998C53.4841 36.7076 53.5463 36.5693 53.5786 36.4932C53.6086 36.4171 53.6662 36.288 53.7054 36.205C53.7423 36.122 53.7953 36.0044 53.8207 35.9399C53.8438 35.8776 53.8945 35.7623 53.9268 35.6863C53.9613 35.6102 54.0213 35.4834 54.0582 35.405C54.0927 35.3243 54.1227 35.2551 54.1227 35.2482C54.1227 35.2413 54.155 35.1698 54.1919 35.0868C54.2311 35.0038 54.261 34.9324 54.261 34.9254C54.261 34.9185 54.291 34.8494 54.3279 34.771C54.3648 34.6903 54.4478 34.5012 54.5147 34.3491C54.5815 34.1969 54.6553 34.0309 54.6783 33.9802C54.6991 33.9295 54.7452 33.8257 54.7775 33.7496C54.8075 33.6736 54.872 33.5306 54.9181 33.4338C54.9619 33.3347 54.9988 33.2493 54.9988 33.2424C54.9988 33.2355 55.0265 33.171 55.0588 33.0995C55.0933 33.0257 55.1279 32.945 55.1394 32.9197C55.151 32.8943 55.1971 32.7929 55.2409 32.696C55.287 32.5969 55.3216 32.5116 55.3216 32.5047C55.3216 32.4977 55.3492 32.4332 55.3838 32.3617C55.4161 32.288 55.4576 32.1934 55.476 32.1542C55.4922 32.1127 55.5222 32.0436 55.5406 32.0044C55.5567 31.9629 55.6582 31.7369 55.7619 31.5018C55.8657 31.2666 55.9694 31.0291 55.9902 30.9715C56.0132 30.9139 56.0593 30.8078 56.1516 30.6026H59.5407L59.5891 30.7133C59.6167 30.7732 59.6513 30.8585 59.6675 30.9023C59.6836 30.9461 59.7297 31.0522 59.7689 31.1398C59.8081 31.2251 59.8727 31.3611 59.9095 31.4441C59.9487 31.5271 59.9787 31.5986 59.9787 31.6055C59.9787 31.6124 60.0041 31.6724 60.034 31.7392C60.064 31.8038 60.1101 31.9052 60.1355 31.9629C60.1608 32.0205 60.2116 32.1335 60.2438 32.2165C60.2784 32.2995 60.3384 32.4332 60.3752 32.5162C60.4144 32.5992 60.4698 32.7283 60.5021 32.8044C60.5343 32.8805 60.6312 33.1041 60.7165 33.3001C60.8041 33.496 60.9055 33.7266 60.9447 33.8142C60.9839 33.8995 61.0162 33.9733 61.0162 33.9802C61.0162 33.9871 61.0531 34.0701 61.0969 34.1646C61.143 34.2592 61.1776 34.3422 61.1776 34.3491C61.1776 34.356 61.2029 34.4159 61.2329 34.4828C61.2629 34.5473 61.3159 34.6649 61.3505 34.741C61.3851 34.8171 61.4335 34.9324 61.4588 34.9946C61.4842 35.0592 61.5372 35.1768 61.5741 35.2597C61.6133 35.3427 61.6709 35.4719 61.7009 35.5479C61.7332 35.624 61.7793 35.7278 61.8001 35.7785C61.8231 35.8292 61.8946 35.9906 61.9568 36.1358C62.0214 36.2811 62.0975 36.4586 62.1297 36.5278C62.162 36.5969 62.2197 36.733 62.2612 36.8275C62.3027 36.922 62.3488 37.0327 62.3649 37.0696C62.381 37.1088 62.4179 37.1918 62.4479 37.254C62.4756 37.3186 62.524 37.4269 62.5563 37.4961C62.5862 37.5653 62.6323 37.6759 62.6577 37.7382C62.6831 37.8027 62.7361 37.9203 62.773 38.0033C62.8122 38.0863 62.8675 38.2154 62.8998 38.2915C62.9321 38.3676 62.9897 38.4967 63.0266 38.5797C63.0658 38.6627 63.1303 38.8125 63.1741 38.914C63.2156 39.0154 63.2802 39.1653 63.3194 39.2483C63.3563 39.3313 63.4162 39.465 63.4508 39.548C63.4831 39.631 63.5315 39.7417 63.5545 39.797C63.5799 39.85 63.6214 39.9422 63.6491 40.0045C63.6744 40.0644 63.7275 40.1774 63.7643 40.2581C63.7989 40.3365 63.8289 40.4056 63.8289 40.4126C63.8289 40.4195 63.8612 40.4909 63.8981 40.5739C63.9557 40.6984 63.9626 40.7307 63.9396 40.7607C63.9142 40.7907 63.7182 40.7953 60.4283 40.7814L60.3891 40.7007C60.3683 40.6569 60.2969 40.4794 60.2323 40.3088C60.1678 40.1382 60.1055 39.9768 60.094 39.9515C60.0825 39.9261 60.0479 39.8385 60.0179 39.7555C59.9879 39.6725 59.9142 39.4742 59.7366 39.0177L55.8933 39.0293L55.7804 39.329C55.7158 39.495 55.6559 39.6517 55.6444 39.6817C55.6328 39.7094 55.6121 39.7555 55.6005 39.7855C55.5913 39.8131 55.5222 39.993 55.4507 40.182C55.3769 40.3734 55.3031 40.5624 55.287 40.6039C55.2686 40.6431 55.2524 40.6892 55.2524 40.7007C55.2524 40.7146 55.2363 40.7399 55.2178 40.7584C55.1856 40.7884 54.7498 40.793 48.1053 40.793L48.0293 40.6846C47.9878 40.6224 47.7987 40.3457 47.6097 40.0667C47.4206 39.7878 47.1762 39.4258 47.0656 39.2598C46.9549 39.0961 46.752 38.7941 46.3624 38.2223L45.454 38.2108L45.4425 40.7814H42.0303L42.0234 30.6003ZM45.4563 35.6309C46.6782 35.6286 46.9226 35.6194 47.0471 35.5964C47.1416 35.5779 47.2454 35.5572 47.2777 35.5479C47.3099 35.541 47.4022 35.5018 47.4852 35.4649C47.5728 35.4257 47.6857 35.3474 47.7572 35.2759C47.8264 35.2113 47.9048 35.1099 47.9347 35.0546C47.9624 34.9969 48.0039 34.8932 48.0247 34.824C48.05 34.741 48.0615 34.6096 48.0615 34.4436C48.0615 34.2476 48.05 34.1531 48.0131 34.0401C47.9878 33.9571 47.9324 33.8373 47.8932 33.775C47.8517 33.7128 47.778 33.6251 47.7249 33.579C47.6742 33.5352 47.5751 33.4684 47.5059 33.4338C47.4367 33.3992 47.3238 33.3577 47.2546 33.3393C47.1854 33.3208 47.0218 33.2955 46.8903 33.2816C46.7612 33.2678 46.3854 33.2563 46.0557 33.2563H45.4563V35.6309ZM57.6432 34.4897C57.5695 34.6788 57.4911 34.8793 57.4657 34.9324C57.4426 34.9854 57.4196 35.0384 57.4173 35.0476C57.4173 35.0569 57.3389 35.2667 57.2444 35.5134C57.1498 35.7623 57.0645 35.986 57.053 36.0113C57.0415 36.0367 57.0069 36.1289 56.9723 36.2188C56.94 36.3064 56.9032 36.4033 56.8916 36.4309C56.8778 36.4586 56.8686 36.4932 56.8686 36.507C56.8686 36.5209 57.2029 36.5301 57.8254 36.5301H58.7821C58.7522 36.4309 58.7268 36.3664 58.7084 36.3226C58.6876 36.2765 58.5816 36.0067 58.4709 35.7232C58.3602 35.4373 58.2611 35.1768 58.2519 35.1468C58.2427 35.1145 58.2196 35.0523 58.1989 35.0084C58.1804 34.9623 58.1043 34.771 58.0329 34.5819C57.9591 34.3906 57.883 34.1946 57.8599 34.1439C57.8231 34.0586 57.8184 34.054 57.7977 34.0978C57.7839 34.1231 57.7147 34.2984 57.6432 34.4897ZM63.2318 30.6049H72.6152V33.2793H69.6641V37.0027C69.6641 40.3572 69.6595 40.7284 69.6273 40.7607C69.5973 40.7907 69.3759 40.7953 67.9327 40.7953C67.022 40.7953 66.2589 40.7884 66.2405 40.7837C66.2105 40.7722 66.2059 40.3342 66.2059 33.2793H63.2318V30.6049ZM73.4682 30.6049H76.9265V35.6886C76.9265 40.1866 76.9219 40.7722 76.8919 40.7837C76.8735 40.7884 76.1103 40.7953 75.1974 40.7953C74.2844 40.7953 73.5213 40.7884 73.5028 40.7837C73.4728 40.7722 73.4682 40.1866 73.4682 35.6886V30.6049Z" fill="white" stroke="white" stroke-width="0.0207493"/>
</g>
</g>
</svg>
