<svg width="24" height="20" viewBox="0 0 24 20" fill="none" xmlns="http://www.w3.org/2000/svg">
<g id="Group">
<path id="Vector" d="M22.5 10.4872H22.275V9.88721C22.275 8.64971 21.2625 7.63721 20.025 7.63721C18.7875 7.63721 17.775 8.64971 17.775 9.88721V10.4872H17.55C17.1 10.4872 16.725 10.8622 16.725 11.3122V14.2372C16.725 14.6872 17.1 15.0622 17.55 15.0622H22.5C22.95 15.0622 23.325 14.6872 23.325 14.2372V11.3122C23.3625 10.8997 22.95 10.4872 22.5 10.4872ZM19.425 9.88721C19.425 9.58721 19.6875 9.32471 19.9875 9.32471C20.2875 9.32471 20.55 9.58721 20.55 9.88721V10.4872H19.3875V9.88721H19.425ZM21.675 13.4122H18.375V12.1747H21.675V13.4122Z" fill="white"/>
<path id="Vector_2" d="M10.0875 6.3998H12.3375C12.7875 6.3998 13.1625 6.0248 13.1625 5.5748C13.1625 5.1248 12.7875 4.7498 12.3375 4.7498H11.8125V4.5623C11.8125 4.1123 11.4375 3.7373 10.9875 3.7373C10.5375 3.7373 10.1625 4.1123 10.1625 4.5623V4.7498H10.125C9 4.7498 8.0625 5.6498 8.0625 6.8123C8.0625 7.9748 9 8.8748 10.125 8.8748H11.175C11.3625 8.8748 11.55 9.0248 11.55 9.2498C11.55 9.4748 11.4 9.6248 11.175 9.6248H8.925C8.475 9.6248 8.1 9.9998 8.1 10.4498C8.1 10.8998 8.475 11.2748 8.925 11.2748H10.1625V11.4623C10.1625 11.9123 10.5375 12.2873 10.9875 12.2873C11.4375 12.2873 11.8125 11.9123 11.8125 11.4623V11.1623C12.6 10.8998 13.2 10.1123 13.2 9.2498C13.2 8.1248 12.2625 7.1873 11.1375 7.1873H10.0875C9.9 7.1873 9.7125 7.0373 9.7125 6.8123C9.7125 6.5873 9.8625 6.3998 10.0875 6.3998Z" fill="white"/>
<path id="Vector_3" d="M14.6625 13.1874H2.85C2.55 13.1874 2.325 12.9624 2.325 12.6624V2.7999C2.325 2.4999 2.55 2.2749 2.85 2.2749H18.3C18.6 2.2749 18.825 2.4999 18.825 2.7999V6.1374C18.825 6.5874 19.2 6.9624 19.65 6.9624C20.1 6.9624 20.475 6.5874 20.475 6.1374V2.7999C20.475 1.5999 19.5 0.587402 18.2625 0.587402H2.85C1.65 0.587402 0.637497 1.5624 0.637497 2.7999V12.6624C0.637497 13.8624 1.6125 14.8749 2.85 14.8749H9.75V17.7249H7.2375C6.7875 17.7249 6.4125 18.0999 6.4125 18.5499C6.4125 18.9999 6.7875 19.3749 7.2375 19.3749H13.95C14.4 19.3749 14.775 18.9999 14.775 18.5499C14.775 18.0999 14.4 17.7249 13.95 17.7249H11.4375V14.8749H14.6625C15.1125 14.8749 15.4875 14.4999 15.4875 14.0499C15.4875 13.5999 15.15 13.1874 14.6625 13.1874Z" fill="white"/>
</g>
</svg>
