<svg width="24" height="20" viewBox="0 0 24 20" fill="none" xmlns="http://www.w3.org/2000/svg">
<g id="Group">
<path id="Vector" d="M19.125 14.0126H18.8625V9.1001C18.8625 7.5251 17.5875 6.2876 16.05 6.2876H14.2125C12.6375 6.2876 11.4 7.5626 11.4 9.1001V14.0126H11.25C10.8 14.0126 10.3875 14.3876 10.3875 14.8751C10.3875 15.3626 10.7625 15.7376 11.25 15.7376H19.125C19.575 15.7376 19.9875 15.3626 19.9875 14.8751C19.9875 14.3876 19.6125 14.0126 19.125 14.0126ZM13.05 9.1001C13.05 8.4626 13.575 7.9751 14.175 7.9751H16.0125C16.65 7.9751 17.1375 8.5001 17.1375 9.1001V14.0126H13.0125V9.1001H13.05Z" fill="white"/>
<path id="Vector_2" d="M20.625 2.7249H7.725C7.0875 1.5624 5.85 0.774902 4.425 0.774902C2.325 0.774902 0.637497 2.4624 0.637497 4.5624V15.4374C0.637497 17.5374 2.325 19.2249 4.425 19.2249H20.625C22.125 19.2249 23.3625 17.9499 23.3625 16.4124V5.5374C23.3625 3.9999 22.125 2.7249 20.625 2.7249ZM4.425 2.4624C5.5875 2.4624 6.525 3.3999 6.525 4.5624V12.3249C5.925 11.9124 5.2125 11.6874 4.425 11.6874C3.6375 11.6874 2.925 11.9124 2.325 12.3249V4.5624C2.3625 3.3999 3.3 2.4624 4.425 2.4624ZM2.3625 15.4374C2.3625 14.2749 3.3 13.3374 4.4625 13.3374C5.625 13.3374 6.5625 14.2749 6.5625 15.4374C6.5625 16.5999 5.625 17.5374 4.4625 17.5374C3.3 17.5374 2.3625 16.5999 2.3625 15.4374ZM21.675 16.4124C21.675 17.0499 21.225 17.5374 20.625 17.5374H7.575C7.9875 16.9374 8.2125 16.2249 8.2125 15.4374V4.5624C8.2125 4.5249 8.2125 4.4499 8.2125 4.4124H20.625C21.1875 4.4124 21.675 4.9374 21.675 5.5374V16.4124Z" fill="white"/>
</g>
</svg>
