<svg width="450" height="244" viewBox="0 0 450 244" fill="none" xmlns="http://www.w3.org/2000/svg">
<rect width="450" height="244" fill="#D1D5DB"/>
<path d="M204.833 142.675H204.833V142.667V114.75H217.25C218.753 114.75 220.194 114.153 221.257 113.091C222.32 112.028 222.917 110.587 222.917 109.084V96.667H240.666C241.879 96.6902 243.034 97.1929 243.877 98.0652C244.722 98.9386 245.185 100.111 245.167 101.326L245.167 101.326V101.334V142.667H245.167L245.167 142.675C245.185 143.889 244.722 145.062 243.877 145.935C243.034 146.808 241.879 147.31 240.666 147.334H209.334C208.121 147.31 206.966 146.808 206.123 145.935C205.278 145.062 204.815 143.889 204.833 142.675ZM216.806 135.417H232.92C233.738 135.417 234.522 135.092 235.101 134.514C235.679 133.936 236.004 133.151 236.004 132.334C236.004 131.516 235.679 130.732 235.101 130.153C234.522 129.575 233.738 129.25 232.92 129.25H216.806C215.988 129.25 215.204 129.575 214.625 130.153C214.047 130.732 213.722 131.516 213.722 132.334C213.722 133.151 214.047 133.936 214.625 134.514C215.204 135.092 215.988 135.417 216.806 135.417ZM216.806 125.084H232.92C233.738 125.084 234.522 124.759 235.101 124.181C235.679 123.602 236.004 122.818 236.004 122C236.004 121.183 235.679 120.398 235.101 119.82C234.522 119.242 233.738 118.917 232.92 118.917H216.806C215.988 118.917 215.204 119.242 214.625 119.82C214.047 120.398 213.722 121.183 213.722 122C213.722 122.818 214.047 123.602 214.625 124.181C215.204 124.759 215.988 125.084 216.806 125.084ZM216.75 97.1921V108.584H205.36C205.714 107.655 206.258 106.807 206.959 106.096C206.959 106.095 206.96 106.095 206.96 106.095L214.261 98.7931C214.262 98.7928 214.262 98.7925 214.262 98.7922C214.973 98.0895 215.821 97.5453 216.75 97.1921Z" fill="#9CA3AF" stroke="#9CA3AF"/>
</svg>
