<svg width="24" height="24" viewBox="0 0 24 24" fill="none" xmlns="http://www.w3.org/2000/svg">
<g id="swatchbook">
<g id="Vector">
<path d="M3 4C3 3.44772 3.44772 3 4 3H9C9.55228 3 10 3.44772 10 4V17.5C10 19.433 8.433 21 6.5 21C4.567 21 3 19.433 3 17.5V4Z" fill="white"/>
<path d="M21 20V15C21 14.4477 20.5523 14 20 14H15.0625C14.802 14 14.5518 14.1016 14.3651 14.2833L10.1271 18.407C10.0637 18.4687 10.0086 18.5393 9.96276 18.615C8.98641 20.2276 8.18395 20.7047 6.5 21H20C20.5523 21 21 20.5523 21 20Z" fill="white"/>
<path d="M18.9706 8.24264L15.435 4.70711C15.0445 4.31658 14.4114 4.31658 14.0208 4.70711L10 8.72794V18.6274L18.9706 9.65685C19.3611 9.26633 19.3611 8.63316 18.9706 8.24264Z" fill="white"/>
<path d="M6.5 21C4.567 21 3 19.433 3 17.5V4C3 3.44772 3.44772 3 4 3H9C9.55228 3 10 3.44772 10 4V17.5C10 19.433 8.433 21 6.5 21ZM6.5 21H20C20.5523 21 21 20.5523 21 20V15C21 14.4477 20.5523 14 20 14H15.0625C14.802 14 14.5518 14.1016 14.3651 14.2833L10.1271 18.407C10.0637 18.4687 10.0086 18.5393 9.96276 18.615C8.98641 20.2276 8.18395 20.7047 6.5 21ZM6.5 17H6.51M15.435 4.70711L18.9706 8.24264C19.3611 8.63316 19.3611 9.26633 18.9706 9.65685L10 18.6274V8.72794L14.0208 4.70711C14.4114 4.31658 15.0445 4.31658 15.435 4.70711Z" stroke="#2F3039" stroke-width="2" stroke-linecap="round"/>
</g>
</g>
</svg>
