<svg width="24" height="24" viewBox="0 0 24 24" fill="none" xmlns="http://www.w3.org/2000/svg">
<path d="M22.2734 12.975C21.1109 11.025 19.0859 9.825 16.8359 9.7875C16.7984 9.7875 16.7609 9.7875 16.7234 9.7875C16.6859 9.7875 16.6484 9.7875 16.6109 9.7875C15.4484 9.825 14.3234 10.125 13.3859 10.725C12.6734 10.125 11.8484 9.6375 10.9859 9.3375C12.2234 8.5875 13.0484 7.2 13.0484 5.6625C13.0484 3.2625 11.0984 1.3125 8.69844 1.3125C6.29844 1.3125 4.34844 3.2625 4.34844 5.6625C4.34844 7.2 5.17344 8.5875 6.41094 9.3375C5.17344 9.75 4.04844 10.5375 3.14844 11.625C1.72344 13.3125 0.935938 15.6375 0.898438 18.1875C0.898438 18.525 1.08594 18.825 1.34844 18.975C2.24844 19.425 5.36094 20.85 8.73594 20.85C9.74844 20.85 10.8359 20.7375 11.8859 20.5125C13.0484 21.8625 14.6984 22.65 16.4609 22.725C16.4984 22.725 16.5734 22.725 16.6109 22.725C16.6484 22.725 16.6859 22.725 16.7234 22.725C16.7609 22.725 16.7984 22.725 16.8359 22.725C18.8609 22.6875 20.7359 21.7125 21.9359 20.1C22.7609 18.975 23.1734 17.6625 23.1734 16.3125C23.1734 15.075 22.8359 13.95 22.2734 12.975ZM13.8359 12.45C14.1359 12.225 14.4734 12.0375 14.8484 11.85C14.6609 12.3 14.5109 12.7125 14.3609 13.1625C13.9859 13.0875 13.6484 13.0125 13.2734 12.9375C13.4234 12.7875 13.6109 12.6 13.8359 12.45C13.7984 12.45 13.7984 12.45 13.8359 12.45ZM17.5484 16.2375C17.5484 16.6125 17.5109 17.025 17.4734 17.4C16.8734 17.3625 16.2359 17.3625 15.6359 17.4C15.5984 17.025 15.5609 16.6125 15.5609 16.2375C15.5609 15.825 15.5984 15.45 15.6359 15.0375C15.9734 15.075 16.3109 15.075 16.6859 15.075C16.9484 15.075 17.2109 15.075 17.4734 15.0375C17.5484 15.45 17.5484 15.8625 17.5484 16.2375ZM16.0484 13.3875C16.1984 12.9375 16.3859 12.525 16.5734 12.1125C16.7984 12.525 16.9484 12.975 17.0984 13.3875C16.7609 13.425 16.3859 13.425 16.0484 13.3875ZM17.0984 19.05C16.9484 19.5 16.7609 19.9125 16.5734 20.3625C16.3484 19.95 16.1984 19.5 16.0484 19.05C16.3859 19.05 16.7609 19.05 17.0984 19.05ZM11.9609 16.2375C11.9609 15.6 12.0734 15 12.3359 14.4375C12.8984 14.625 13.4609 14.7375 14.0234 14.85C13.9484 15.3 13.9109 15.7875 13.9109 16.2375C13.9109 16.6875 13.9484 17.175 13.9859 17.625C13.4234 17.7375 12.8609 17.8875 12.2984 18.0375C12.0734 17.475 11.9609 16.875 11.9609 16.2375ZM14.3234 19.275C14.4734 19.725 14.6234 20.175 14.8109 20.625C14.2109 20.3625 13.6859 20.025 13.2359 19.5375C13.6109 19.425 13.9859 19.35 14.3234 19.275ZM18.8234 19.2375C19.2734 19.3125 19.7234 19.3875 20.1359 19.5375C19.6109 20.1 18.9734 20.5125 18.2609 20.7375C18.4859 20.25 18.6734 19.725 18.8234 19.2375ZM19.1609 17.5875C19.1984 17.1375 19.2359 16.6875 19.2359 16.2375C19.2359 15.7875 19.1984 15.3375 19.1609 14.8875C19.8359 14.775 20.4734 14.625 21.1109 14.4375C21.3359 15 21.4859 15.6375 21.4859 16.2375C21.4859 16.875 21.3734 17.475 21.1484 18.0375C20.4734 17.85 19.8359 17.7 19.1609 17.5875ZM20.1359 12.9375C19.6859 13.05 19.2734 13.1625 18.8234 13.2375C18.6734 12.75 18.4859 12.225 18.2609 11.7375C18.9734 12 19.6109 12.4125 20.1359 12.9375ZM8.69844 3C10.1609 3 11.3609 4.2 11.3609 5.6625C11.3609 7.125 10.1609 8.325 8.69844 8.325C7.23594 8.325 6.03594 7.125 6.03594 5.6625C6.03594 4.2 7.23594 3 8.69844 3ZM2.54844 17.6625C2.69844 15.7125 3.33594 13.9875 4.38594 12.7125C5.51094 11.3625 7.04844 10.65 8.66094 10.65C9.89844 10.65 11.0234 11.0625 11.9984 11.8125C11.6609 12.15 11.3609 12.5625 11.1359 12.975C10.5359 13.95 10.2359 15.1125 10.2359 16.2375C10.2359 17.175 10.4609 18.1125 10.8359 18.9375C10.0859 19.05 9.37344 19.125 8.66094 19.125C6.14844 19.125 3.71094 18.1875 2.54844 17.6625Z" fill="white"/>
</svg>
