<svg width="24" height="24" viewBox="0 0 24 24" fill="none" xmlns="http://www.w3.org/2000/svg">
<g id="users-group">
<g id="Vector">
<path d="M6.333 8.76398C5.93306 8.59502 5.57456 8.34126 5.28226 8.02023C4.98996 7.6992 4.77082 7.31854 4.63998 6.90456C4.50914 6.49058 4.46972 6.05313 4.52443 5.62242C4.57915 5.19172 4.7267 4.77802 4.95689 4.4099C5.18708 4.04178 5.49444 3.72801 5.85772 3.49026C6.22101 3.25251 6.63157 3.09645 7.06105 3.03285C7.49054 2.96925 7.92871 2.99963 8.34531 3.12189C8.7619 3.24415 9.147 3.45538 9.474 3.74098" fill="white"/>
<path d="M4.5 18H3V16C3 14.9391 3.42143 13.9217 4.17157 13.1716C4.92172 12.4214 5.93913 12 7 12" fill="white"/>
<path d="M14.379 3.87898C14.7023 3.55699 15.0948 3.31299 15.5266 3.16554C15.9584 3.01809 16.4181 2.97108 16.8709 3.02809C17.3236 3.0851 17.7573 3.24462 18.1391 3.49452C18.5208 3.74442 18.8406 4.07811 19.074 4.4702C19.3073 4.8623 19.4482 5.30245 19.4858 5.75719C19.5234 6.21192 19.4568 6.66924 19.2911 7.09436C19.1253 7.51948 18.8648 7.90119 18.5293 8.21044C18.1938 8.51969 17.7922 8.74834 17.355 8.87898" fill="white"/>
<path d="M17 12C18.0609 12 19.0783 12.4214 19.8284 13.1716C20.5786 13.9217 21 14.9391 21 16V18H19.239" fill="white"/>
<path d="M12 12C13.6569 12 15 10.6568 15 8.99998C15 7.34313 13.6569 5.99998 12 5.99998C10.3431 5.99998 9 7.34313 9 8.99998C9 10.6568 10.3431 12 12 12Z" fill="white"/>
<path d="M11 15H13C14.0609 15 15.0783 15.4214 15.8284 16.1716C16.5786 16.9217 17 17.9391 17 19V21H7V19C7 17.9391 7.42143 16.9217 8.17157 16.1716C8.92172 15.4214 9.93913 15 11 15Z" fill="white"/>
<path d="M6.333 8.76398C5.93306 8.59502 5.57456 8.34126 5.28226 8.02023C4.98996 7.6992 4.77082 7.31854 4.63998 6.90456C4.50914 6.49058 4.46972 6.05313 4.52443 5.62242C4.57915 5.19172 4.7267 4.77802 4.95689 4.4099C5.18708 4.04178 5.49444 3.72801 5.85772 3.49026C6.22101 3.25251 6.63157 3.09645 7.06105 3.03285C7.49054 2.96925 7.92871 2.99963 8.34531 3.12189C8.7619 3.24415 9.147 3.45538 9.474 3.74098M4.5 18H3V16C3 14.9391 3.42143 13.9217 4.17157 13.1716C4.92172 12.4214 5.93913 12 7 12M14.379 3.87898C14.7023 3.55699 15.0948 3.31299 15.5266 3.16554C15.9584 3.01809 16.4181 2.97108 16.8709 3.02809C17.3236 3.0851 17.7573 3.24462 18.1391 3.49452C18.5208 3.74442 18.8406 4.07811 19.074 4.4702C19.3073 4.8623 19.4482 5.30245 19.4858 5.75719C19.5234 6.21192 19.4568 6.66924 19.2911 7.09436C19.1253 7.51948 18.8648 7.90119 18.5293 8.21044C18.1938 8.51969 17.7922 8.74834 17.355 8.87898M17 12C18.0609 12 19.0783 12.4214 19.8284 13.1716C20.5786 13.9217 21 14.9391 21 16V18H19.239M15 8.99998C15 10.6568 13.6569 12 12 12C10.3431 12 9 10.6568 9 8.99998C9 7.34313 10.3431 5.99998 12 5.99998C13.6569 5.99998 15 7.34313 15 8.99998ZM11 15H13C14.0609 15 15.0783 15.4214 15.8284 16.1716C16.5786 16.9217 17 17.9391 17 19V21H7V19C7 17.9391 7.42143 16.9217 8.17157 16.1716C8.92172 15.4214 9.93913 15 11 15Z" stroke="#2F2F38" stroke-width="2" stroke-linecap="round" stroke-linejoin="round"/>
</g>
</g>
</svg>
